<svg width="84" height="94" viewBox="0 0 84 94" fill="none" xmlns="http://www.w3.org/2000/svg">
<path d="M74.6666 51.7H9.33333V84.6H74.6666V51.7ZM74.6666 42.3C74.6666 33.5744 71.225 25.2062 65.0988 19.0362C58.9726 12.8663 50.6637 9.40005 42 9.40005C33.3362 9.40005 25.0273 12.8663 18.9012 19.0362C12.775 25.2062 9.33333 33.5744 9.33333 42.3H74.6666ZM15.7827 9.24965C23.2201 3.24806 32.4697 -0.0152509 42 5.35875e-05C51.9166 5.35875e-05 61.0306 3.45925 68.2173 9.24965L74.9979 2.42055L81.5966 9.06635L74.8159 15.8954C80.775 23.386 84.0151 32.7017 83.9999 42.3V89.3C83.9999 90.5465 83.5083 91.742 82.6331 92.6234C81.7579 93.5048 80.571 94 79.3333 94H4.66666C3.42899 94 2.242 93.5048 1.36683 92.6234C0.491665 91.742 0 90.5465 0 89.3V42.3C0 32.3125 3.43466 23.1334 9.18399 15.8954L2.40333 9.07105L9.00199 2.42525L15.7827 9.25435V9.24965ZM28 32.9C26.7623 32.9 25.5753 32.4049 24.7002 31.5234C23.825 30.642 23.3333 29.4466 23.3333 28.2C23.3333 26.9535 23.825 25.7581 24.7002 24.8766C25.5753 23.9952 26.7623 23.5 28 23.5C29.2377 23.5 30.4246 23.9952 31.2998 24.8766C32.175 25.7581 32.6666 26.9535 32.6666 28.2C32.6666 29.4466 32.175 30.642 31.2998 31.5234C30.4246 32.4049 29.2377 32.9 28 32.9ZM56 32.9C54.7623 32.9 53.5753 32.4049 52.7001 31.5234C51.825 30.642 51.3333 29.4466 51.3333 28.2C51.3333 26.9535 51.825 25.7581 52.7001 24.8766C53.5753 23.9952 54.7623 23.5 56 23.5C57.2376 23.5 58.4246 23.9952 59.2998 24.8766C60.175 25.7581 60.6666 26.9535 60.6666 28.2C60.6666 29.4466 60.175 30.642 59.2998 31.5234C58.4246 32.4049 57.2376 32.9 56 32.9Z" fill="white"/>
</svg>
