<svg width="127" height="137" viewBox="0 0 127 137" fill="none" xmlns="http://www.w3.org/2000/svg">
<path d="M63.4813 0C63.5809 0 63.6662 0 63.7658 0C63.8938 0.213359 64.1356 0.199134 64.3205 0.270254C84.7461 7.56713 105.186 14.8498 125.611 22.1324C126.92 22.6018 126.963 22.6018 126.82 23.9531C126.593 26.2147 126.323 28.4621 126.052 30.7094C125.739 33.3835 125.426 36.0576 125.128 38.7317C124.872 40.9791 124.616 43.2407 124.36 45.4881C124.047 48.1622 123.734 50.8363 123.435 53.5104C123.179 55.7578 122.923 58.0194 122.667 60.2668C122.354 62.9409 122.041 65.615 121.742 68.2891C121.486 70.5364 121.23 72.798 120.974 75.0454C120.661 77.7195 120.349 80.3936 120.036 83.0677C119.737 85.7133 119.438 88.3732 119.125 91.0189C118.812 93.7356 118.499 96.4524 118.187 99.1834C117.93 101.431 117.646 103.678 117.404 105.94C117.347 106.48 117.091 106.751 116.65 106.992C99.7239 116.366 82.7974 125.739 65.8567 135.113C65.0744 135.54 64.349 136.052 63.4955 136.351C63.4955 118.969 63.4955 101.573 63.4955 84.1914C63.7374 84.1772 63.9649 84.1629 64.2067 84.1629C69.3131 84.1629 74.4337 84.1772 79.5401 84.1487C80.1233 84.1487 80.3509 84.3336 80.55 84.8457C83.0108 91.0331 85.4857 97.2063 87.9465 103.394C88.1456 103.906 88.4016 104.091 88.9706 104.091C93.3942 104.062 97.8179 104.076 102.256 104.076C102.483 104.076 102.725 104.148 102.981 103.977C102.867 103.707 102.754 103.422 102.626 103.152C90.8624 76.6812 79.1134 50.2531 67.3645 23.8251C66.0843 20.9376 64.7757 18.0644 63.4813 15.1769C63.4813 10.1132 63.4813 5.06372 63.4813 0Z" fill="white"/>
<path d="M63.4814 84.1772C63.4814 101.559 63.4814 118.955 63.4814 136.336C63.268 136.237 63.0546 136.137 62.8555 136.023C56.8246 132.681 50.7936 129.338 44.7627 125.995C33.2555 119.623 21.7484 113.237 10.2412 106.879C9.84295 106.665 9.67227 106.423 9.62959 105.968C9.38779 103.692 9.10331 101.417 8.83305 99.1265C7.9085 91.1184 6.99817 83.1104 6.07361 75.0881C5.09216 66.696 4.11071 58.2896 3.14349 49.8833C2.21893 41.861 1.3086 33.8529 0.384045 25.8449C0.284478 25.0341 0.341374 24.2091 0 23.441C0 23.1565 0 22.8721 0 22.5876C0.241807 22.5165 0.497837 22.4738 0.739643 22.3885C19.1881 15.817 37.6507 9.23132 56.0991 2.64565C58.5172 1.77799 60.9211 0.881883 63.3391 0C63.3818 0 63.4387 0 63.4814 0C63.4814 5.06372 63.4814 10.1132 63.4814 15.1769C63.3818 15.3618 63.2822 15.5467 63.1969 15.7317C51.0212 43.0274 38.8455 70.3231 26.6841 97.6188C25.7453 99.7239 24.8065 101.829 23.8677 103.948C24.1522 104.119 24.4225 104.048 24.6785 104.048C29.0595 104.048 33.4404 104.034 37.8072 104.062C38.433 104.062 38.7033 103.863 38.9309 103.294C41.3774 97.1067 43.8666 90.9335 46.3273 84.7461C46.5264 84.2341 46.7967 84.106 47.323 84.106C52.3867 84.1203 57.4504 84.1203 62.5141 84.1203C62.8271 84.1345 63.1542 84.1629 63.4814 84.1772Z" fill="white" fill-opacity="0.67"/>
<path d="M63.4813 71.8592C59.6551 71.8592 55.8289 71.8592 52.0169 71.8592C51.9173 71.6032 52.088 71.4325 52.1591 71.2476C55.8289 62.4146 59.4987 53.5673 63.1826 44.7342C63.2538 44.5493 63.268 44.3217 63.4813 44.2222C63.4813 53.425 63.4813 62.6421 63.4813 71.8592Z" fill="white" fill-opacity="0.67"/>
<path d="M63.4813 71.8593C63.4813 62.6422 63.4813 53.4251 63.4813 44.208C63.8511 44.5921 63.9507 45.1041 64.1356 45.5735C67.6916 54.1079 71.2334 62.6422 74.7751 71.1766C74.8605 71.3899 75.0311 71.5891 74.9458 71.8593C71.1338 71.8593 67.3076 71.8593 63.4813 71.8593Z" fill="white"/>
</svg>
