<svg width="135" height="82" viewBox="0 0 135 82" fill="none" xmlns="http://www.w3.org/2000/svg">
<path d="M58.0227 32.6121C59.426 26.7184 60.8037 20.8248 62.207 14.9311C63.0999 11.1806 64.044 7.43005 64.8604 3.65402C65.2431 1.86806 66.1616 1.2047 67.9986 1.23021C74.0453 1.33227 73.0758 0.745451 74.4281 6.33296C76.5967 15.2117 78.6123 24.116 81.1382 33.0714C82.1077 29.4229 83.0517 25.7999 83.9957 22.1515C85.5265 16.2833 87.1084 10.4152 88.4861 4.52148C89.0474 2.12318 90.068 1.10263 92.6449 1.20469C97.1353 1.38328 97.1608 1.2302 95.7831 5.61856C92.3897 16.5384 88.9199 27.4073 85.6031 38.3527C84.9907 40.3938 84.0467 41.3378 81.8015 41.2868C76.0099 41.1592 76.9284 41.6185 75.6272 36.4137C73.5861 28.3003 71.7236 20.1614 69.7845 12.048C69.657 11.5378 69.7335 10.9254 68.9426 10.6193C66.825 19.498 64.7328 28.3768 62.5642 37.2301C62.2325 38.5568 62.3856 40.4703 60.8802 40.9296C58.7881 41.5929 56.4919 41.4399 54.3232 40.9551C53.5323 40.7765 53.3282 39.8325 53.073 39.0671C49.5011 27.3053 45.9037 15.5434 42.3318 3.78159C41.8215 2.07217 42.1277 1.15367 44.2708 1.23021C49.8838 1.40881 49.297 0.515827 50.7768 6.33296C52.9965 15.1097 55.2417 23.8864 57.4869 32.6631C57.7165 32.6376 57.8696 32.6121 58.0227 32.6121Z" fill="white"/>
<path d="M69.4017 81.0884C44.4493 80.9098 23.2219 73.868 4.67337 59.1465C3.37217 58.126 2.122 57.0289 0.897342 55.9318C0.412581 55.4981 -0.40386 54.9878 0.233983 54.1969C0.769772 53.5335 1.40762 54.1203 1.91789 54.401C5.54084 56.34 9.13828 58.3046 12.8888 59.963C25.2119 65.4739 38.0198 69.0714 51.4146 70.8318C74.7851 73.9445 97.2627 70.7043 119.051 62.0296C119.409 61.8765 119.791 61.7234 120.149 61.5703C121.22 61.1111 122.215 61.1366 122.828 62.2337C123.389 63.2798 122.47 63.8411 121.858 64.3769C119.281 66.4945 116.398 68.1529 113.489 69.7092C103.641 74.914 93.155 78.1287 82.1586 79.8637C77.413 80.6036 72.693 80.6291 69.4017 81.0884Z" fill="white"/>
<path d="M30.7229 36.1586C28.044 38.9907 25.0589 41.1338 21.2828 41.8737C18.9356 42.333 16.5628 42.384 14.2155 41.9503C9.08727 40.9807 5.66843 37.1026 5.28572 32.0254C4.80096 25.4684 7.55644 20.9269 13.246 18.7838C18.2722 16.8958 23.375 17.5336 28.4012 18.6052C30.1106 18.9624 30.5698 18.5286 30.3657 16.9723C30.3402 16.7427 30.3657 16.4875 30.3657 16.2579C30.2892 8.90996 28.4522 5.54214 18.6804 6.25652C15.7719 6.48615 12.9654 7.40464 10.2609 8.55276C8.60251 9.24163 7.8371 9.06304 7.70953 7.02194C7.55645 4.62364 8.34737 3.22039 10.6691 2.35292C15.8739 0.362851 21.1808 -0.402558 26.6918 0.490423C33.555 1.58751 37.28 6.00139 37.5096 13.2983C37.6371 17.9418 37.5861 22.6108 37.5606 27.2799C37.5351 30.5456 37.8157 33.7604 39.5252 36.6434C40.163 37.7405 39.9844 38.5825 38.9639 39.2713C38.5046 39.5775 38.0709 39.9092 37.6116 40.2153C35.0347 41.9503 34.2693 41.8227 32.5089 39.1948C31.8966 38.2508 31.3863 37.2812 30.7229 36.1586ZM19.5989 36.4648C26.5387 36.4393 30.8505 31.9744 30.4678 25.3408C30.4168 24.4478 30.2892 23.8355 29.2686 23.6569C25.6202 22.9935 21.9462 22.4067 18.2467 23.2232C14.4707 24.0396 12.4806 27.1013 12.9654 31.2345C13.3481 34.5768 15.7464 36.4903 19.5989 36.4648Z" fill="white"/>
<path d="M113.643 42.486C109.867 42.3074 106.065 41.7716 102.468 40.1897C100.35 39.2712 99.2274 36.4902 100.197 34.4747C100.886 33.0459 102.008 33.9389 102.825 34.2961C106.601 35.9289 110.53 36.5668 114.612 36.4137C116.449 36.3372 118.235 35.98 119.791 35.0104C123.312 32.8418 123.261 28.3769 119.664 26.3613C116.551 24.6008 113.005 23.9885 109.662 22.8404C107.009 21.9219 104.56 20.6972 102.825 18.4265C98.1558 12.3032 100.733 4.21534 108.336 1.33229C114.025 -0.836377 119.664 -0.173011 125.2 1.99566C127.267 2.8121 128.185 5.26142 127.446 7.35354C126.884 8.9354 125.787 8.221 124.92 7.8383C121.526 6.30747 117.954 5.89925 114.28 6.10336C112.928 6.17991 111.627 6.46056 110.428 7.09841C107.315 8.7568 106.958 12.7625 109.714 15.0077C111.27 16.2834 113.209 16.8191 115.071 17.457C117.597 18.3244 120.2 19.0133 122.7 19.9828C126.476 21.4626 129.078 24.0395 129.589 28.2493C130.15 32.8673 128.594 36.6433 124.767 39.3733C121.45 41.6695 117.674 42.3584 113.643 42.486Z" fill="white"/>
<path d="M125.889 51.3137C128.287 51.2372 130.635 51.2882 132.931 52.0536C134.309 52.5128 135.049 53.3038 134.997 54.8091C134.666 62.3356 132.217 68.9692 126.91 74.4036C126.501 74.8374 126.017 75.5773 125.353 75.169C124.664 74.7098 125.277 74.0209 125.481 73.4851C126.833 69.8622 128.262 66.2903 129.078 62.5142C130.124 57.7942 128.696 55.9062 123.822 55.651C120.046 55.4724 116.27 55.8296 112.545 56.442C111.882 56.544 110.938 56.9267 110.632 56.1103C110.3 55.2428 111.321 54.9877 111.882 54.656C116.219 52.1046 120.914 51.0586 125.889 51.3137Z" fill="white"/>
</svg>
