<svg width="85" height="117" viewBox="0 0 85 117" fill="none" xmlns="http://www.w3.org/2000/svg">
<path d="M16.4793 0C16.7883 0 17.0973 0 17.4191 0C17.4449 0.02575 17.4578 0.064375 17.4835 0.064375C18.5006 0.270375 19.1315 0.914125 19.6079 1.8025C23.2644 8.7035 26.9466 15.5916 30.616 22.4926C31.6846 24.5011 32.7533 26.5096 33.8219 28.5181C33.8991 28.6726 33.9378 28.8657 34.1695 28.9559C34.2983 28.7112 34.427 28.4795 34.5558 28.2477C36.3583 24.8101 38.1608 21.3725 39.9761 17.9349C40.607 16.7375 41.9331 16.1967 43.2335 16.5701C44.109 16.8147 44.6498 17.407 45.0618 18.1924C48.5123 24.7844 51.9628 31.3764 55.4133 37.9555C55.7094 38.5091 55.645 38.5735 56.1471 38.0585C60.4989 33.6939 64.8506 29.3421 69.2024 24.9775C69.3698 24.8101 69.5243 24.6427 69.7045 24.4882C70.7345 23.6256 72.228 23.69 73.1936 24.617C73.6829 25.0805 73.9018 25.6727 74.0048 26.3165C74.4554 29.0717 74.8931 31.827 75.3438 34.5822C75.8201 37.5306 76.2965 40.4919 76.7858 43.4402C77.3008 46.6075 77.8158 49.7747 78.3307 52.942C78.8457 56.1092 79.3607 59.2765 79.8758 62.4566C80.4551 66.0101 81.0345 69.5636 81.6139 73.1171C82.1546 76.4775 82.6954 79.825 83.2361 83.1853C83.7898 86.6487 84.3949 90.0992 84.897 93.5755C84.9099 93.6527 84.9356 93.73 85 93.7815C85 93.9746 85 94.1548 85 94.348C84.8455 94.3351 84.7425 94.4381 84.6266 94.5154C78.9616 97.6697 73.2966 100.824 67.6445 103.991C60.589 107.918 53.5464 111.858 46.4909 115.785C45.6669 116.248 44.8043 116.583 43.8773 116.763C43.7356 116.789 43.5554 116.75 43.4524 116.905C42.7314 116.905 42.0233 116.905 41.3023 116.905C41.2765 116.815 41.1993 116.802 41.122 116.802C39.9375 116.609 38.8689 116.107 37.826 115.514C28.8908 110.506 19.9426 105.523 11.0074 100.528C7.45389 98.5452 3.9004 96.5625 0.346898 94.5797C-0.026477 94.3737 -0.0393532 94.3737 0.0378968 93.936C0.334022 92.0305 0.630148 90.1121 0.926273 88.2066C1.3769 85.3226 1.82752 82.4515 2.27815 79.5675C2.70302 76.8766 3.11502 74.1729 3.5399 71.482C4.0549 68.1731 4.5699 64.8642 5.09777 61.5554C5.5484 58.6456 6.0119 55.7359 6.46252 52.8261C6.91315 49.9679 7.36377 47.0967 7.80152 44.2385C8.22639 41.509 8.65127 38.7924 9.07614 36.0629C9.48814 33.3849 9.91302 30.7069 10.325 28.0289C10.8143 24.9131 11.2906 21.8102 11.7799 18.6945C12.2305 15.8105 12.6811 12.9394 13.1318 10.0554C13.5309 7.48037 13.93 4.90538 14.342 2.34325C14.5094 1.27463 15.1403 0.579376 16.1445 0.206001C16.2475 0.141626 16.4149 0.1545 16.4793 0ZM0.205272 93.9489C0.462772 93.8716 0.565772 93.7171 0.694522 93.5884C2.94765 91.3224 5.20077 89.0435 7.4539 86.7904C22.7236 71.4691 38.032 56.1736 53.3146 40.8652C53.9198 40.2601 54.512 39.6292 55.1043 39.0112C55.3618 38.7409 55.3618 38.7022 55.1815 38.3546C54.4734 37.0027 53.7524 35.6509 53.0443 34.299C52.1044 32.5094 51.1516 30.7069 50.2118 28.9172C49.1946 26.9731 48.1646 25.029 47.1475 23.072C46.3621 21.5656 45.5768 20.0592 44.7914 18.5529C44.5339 18.0636 44.2378 17.613 43.7485 17.3169C43.1563 16.9564 42.5511 16.7504 41.843 16.9306C41.1091 17.1109 40.607 17.5486 40.2594 18.2052C39.68 19.3254 39.0749 20.4326 38.4955 21.5656C37.2981 23.8831 36.1136 26.1877 34.9163 28.5052C34.7489 28.8142 34.5686 29.1232 34.4013 29.4065C34.2596 29.4194 34.2339 29.3292 34.1953 29.2777C34.1438 29.2134 34.0923 29.1361 34.015 29.2262C33.809 29.458 33.7318 29.2777 33.6545 29.1232C32.9721 27.8615 32.3026 26.5997 31.6203 25.338C31.0538 24.2694 30.4873 23.1879 29.9208 22.1192C28.9294 20.2266 27.938 18.334 26.9466 16.4542C26.4316 15.4886 25.9424 14.523 25.4403 13.5574C24.1785 11.124 22.8781 8.7035 21.5906 6.283C20.7924 4.76375 20.0199 3.23162 19.1701 1.73812C18.2818 0.167375 16.1703 0.0257484 15.0759 1.51925C14.6896 2.04712 14.5866 2.65225 14.4965 3.27025C14.239 5.00837 13.9558 6.7465 13.6854 8.48462C13.4794 9.81075 13.2734 11.124 13.0545 12.4501C12.9 13.4672 12.7326 14.4844 12.5653 15.4886C12.3593 16.789 12.1661 18.1022 11.9601 19.4026C11.7541 20.6901 11.5481 21.9776 11.3421 23.278C11.0846 24.9646 10.8271 26.6641 10.5696 28.3507C10.2993 30.0889 10.016 31.827 9.74565 33.5522C9.53965 34.8269 9.35939 36.1015 9.15339 37.3761C8.94739 38.6765 8.74139 39.9897 8.53539 41.2901C8.34227 42.5647 8.14915 43.8394 7.94315 45.114C7.67277 46.8135 7.4024 48.5259 7.13202 50.2254C6.92602 51.5129 6.74577 52.8132 6.53977 54.1007C6.26939 55.826 5.99902 57.5384 5.72864 59.2636C5.52264 60.5382 5.3424 61.8129 5.1364 63.0875C4.90465 64.6067 4.66002 66.126 4.4154 67.6452C4.2094 68.9842 4.0034 70.3232 3.78452 71.6622C3.56565 73.0785 3.3339 74.4947 3.11502 75.8981C2.88327 77.4174 2.6644 78.9495 2.41977 80.4687C2.21377 81.8077 1.9949 83.1467 1.7889 84.4857C1.5829 85.8119 1.36402 87.1251 1.15802 88.4512C1.0164 89.3396 0.913397 90.2409 0.746022 91.1292C0.578647 92.0434 0.514272 92.9832 0.205272 93.9489Z" fill="white"/>
<path d="M0.205322 93.9489C0.514322 92.9833 0.565823 92.0434 0.733198 91.1293C0.900573 90.2409 1.00357 89.3397 1.1452 88.4513C1.3512 87.1252 1.5572 85.8119 1.77607 84.4858C1.98207 83.1468 2.20095 81.8078 2.40695 80.4688C2.6387 78.9495 2.85757 77.4174 3.1022 75.8982C3.32107 74.4819 3.55282 73.0657 3.7717 71.6623C3.9777 70.3233 4.19657 68.9843 4.40257 67.6453C4.6472 66.126 4.87895 64.6068 5.12357 63.0875C5.3167 61.8129 5.50982 60.5383 5.71582 59.2637C5.9862 57.5384 6.26945 55.826 6.52695 54.1008C6.73295 52.8133 6.9132 51.5129 7.11919 50.2254C7.38957 48.5259 7.65995 46.8135 7.93032 45.114C8.13632 43.8394 8.31657 42.5648 8.52257 41.2902C8.72857 39.9898 8.93457 38.6765 9.14057 37.3762C9.34657 36.1015 9.52682 34.8269 9.73282 33.5523C10.0032 31.8142 10.2864 30.0761 10.5568 28.3508C10.8143 26.6642 11.0718 24.9647 11.3293 23.278C11.5353 21.9905 11.7413 20.7031 11.9473 19.4027C12.1533 18.1023 12.3464 16.7891 12.5524 15.4887C12.7069 14.4716 12.8743 13.4544 13.0417 12.4502C13.2477 11.1241 13.4537 9.8108 13.6726 8.48468C13.9429 6.74655 14.2391 5.00843 14.4837 3.27031C14.5738 2.65231 14.6768 2.04718 15.0631 1.5193C16.1574 0.0129304 18.2689 0.167432 19.1573 1.73818C20.0071 3.23168 20.7796 4.7638 21.5778 6.28305C22.8653 8.70355 24.1657 11.1241 25.4274 13.5574C25.9296 14.5231 26.4317 15.4887 26.9338 16.4543C27.9252 18.3469 28.9166 20.2395 29.9079 22.1193C30.4744 23.2008 31.0409 24.2694 31.6074 25.338C32.2769 26.5998 32.9593 27.8616 33.6417 29.1233C33.7189 29.2778 33.7962 29.458 34.0022 29.2263C34.0794 29.1362 34.1309 29.2134 34.1824 29.2778C34.2211 29.3422 34.2468 29.4194 34.3884 29.4065C34.5558 29.1233 34.7361 28.8143 34.9034 28.5053C36.1008 26.1878 37.2853 23.8832 38.4827 21.5657C39.0621 20.4456 39.6543 19.3254 40.2466 18.2053C40.5942 17.5487 41.0963 17.1109 41.8302 16.9307C42.5383 16.7504 43.1563 16.9564 43.7357 17.3169C44.2121 17.6131 44.5211 18.0637 44.7786 18.5529C45.5639 20.0593 46.3493 21.5657 47.1347 23.0721C48.1518 25.0162 49.1818 26.9603 50.1989 28.9173C51.1388 30.7069 52.0787 32.5094 53.0314 34.299C53.7396 35.6509 54.4477 37.0028 55.1687 38.3547C55.3489 38.7023 55.3489 38.728 55.0914 39.0113C54.4992 39.6293 53.9069 40.2602 53.3018 40.8653C38.0321 56.1737 22.7366 71.4692 7.45395 86.7775C5.20082 89.0435 2.9477 91.3095 0.694573 93.5755C0.578698 93.7172 0.462822 93.8845 0.205322 93.9489Z" fill="white" fill-opacity="0.67"/>
</svg>
