<svg width="88" height="108" viewBox="0 0 88 108" fill="none" xmlns="http://www.w3.org/2000/svg">
<path d="M64.6816 35.8326C62.3775 35.6524 59.9029 36.2027 56.1132 37.6491C56.4347 37.5273 52.4987 39.0614 51.3978 39.4509C48.9525 40.3032 46.9407 40.7707 44.6853 40.7707C42.4543 40.7707 40.3987 40.3227 38.0313 39.5289C37.2762 39.2708 36.5163 38.9932 35.5713 38.6231C35.1719 38.4672 33.7105 37.8828 33.389 37.7611C30.2325 36.5241 28.4545 36.0566 26.9785 36.0956C21.3669 36.1686 16.0524 39.4071 12.969 44.7737C6.67538 55.7017 10.1583 75.4491 19.36 88.7537C24.2604 95.7858 26.9396 98.2986 28.021 98.2645C29.1024 98.2159 29.8964 97.987 31.8351 97.1688L32.6486 96.8231C37.5442 94.7339 40.9783 93.8135 46.1467 93.8135C51.1202 93.8135 54.4423 94.7193 59.143 96.7451L59.9614 97.0958C61.9001 97.9237 62.6016 98.1087 63.8194 98.0795C65.5633 98.0551 67.7115 96.0487 72.4804 89.0507C73.7859 87.1466 74.9403 85.1402 75.9389 83.1095C75.2826 82.569 74.6457 82.0054 74.0294 81.4196C67.7504 75.4394 63.8681 67.3749 63.7609 57.4111C63.656 50.0389 66.08 42.8531 70.6293 37.0501C68.7199 36.3454 66.7144 35.9349 64.6816 35.8326ZM65.4366 26.1221C68.8854 26.3558 78.7642 27.4077 85.1942 36.8163C84.6681 37.1085 73.3864 43.6536 73.5033 57.3283C73.6787 73.6911 87.8246 79.1259 88 79.1843C87.8831 79.5934 85.7203 86.9567 80.5178 94.5537C76.0169 101.157 71.3405 107.702 63.9753 107.819C56.7269 107.995 54.3887 103.553 46.1467 103.553C37.8462 103.553 35.2742 107.702 28.435 107.995C21.3036 108.228 15.9258 100.865 11.3663 94.3199C2.0721 80.8791 -5.00088 56.4517 4.52718 39.9136C9.26199 31.6737 17.6794 26.4727 26.8567 26.3558C33.8128 26.1805 40.4182 31.0309 44.6853 31.0309C48.894 31.0309 56.4346 25.4208 65.4366 26.1221ZM59.8835 17.2394C56.0839 21.7976 49.8878 25.3624 43.867 24.8949C43.0486 18.7004 46.0882 12.2137 49.5955 8.18141C53.5119 3.62319 60.0588 0.233755 65.4951 0C66.1965 6.31137 63.683 12.6812 59.8835 17.2394Z" fill="white"/>
</svg>
