<svg width="188" height="67" viewBox="0 0 188 67" fill="none" xmlns="http://www.w3.org/2000/svg">
<g clip-path="url(#clip0_82_1717)">
<path d="M70.7496 50.191C70.3973 49.7191 70.1624 49.3063 69.8689 48.8934C61.1793 35.3873 52.02 22.058 43.9176 8.198C40.2187 1.76931 35.9326 -0.766786 28.8283 0.176876C26.421 0.530749 25.7165 1.06156 25.7752 3.42071C25.8339 21.8221 25.7752 40.2235 25.7752 58.6249C25.7752 66.2922 25.7752 66.1742 33.5841 66.1742C36.05 66.1742 36.7546 65.4075 36.6959 62.9894C36.5784 48.1267 36.5784 33.323 36.5784 18.4603C36.5784 17.8116 36.1674 16.9269 37.1069 16.3371C46.2661 30.433 55.3667 44.529 64.526 58.566C69.634 66.4101 69.634 66.2922 78.852 66.1742C81.1418 66.1153 81.6115 65.2896 81.6115 63.2253C81.5528 43.2904 81.5528 23.2966 81.6115 3.36174C81.6115 1.17952 81.1418 -6.04447e-05 78.6759 0.294834C77.0319 0.471771 75.3292 0.471771 73.6852 0.294834C71.278 0.0589184 70.6909 1.12054 70.6909 3.36174C70.8083 18.8732 70.7496 34.3846 70.7496 50.191Z" fill="white"/>
<path d="M97.3467 33.2051C97.3467 42.9366 97.4641 52.6681 97.288 62.3997C97.2292 65.3486 97.9338 66.2923 100.987 66.2333C109.911 66.0564 118.777 66.1743 127.701 66.1743C134.453 66.1743 134.336 66.1743 134.395 59.5097C134.395 57.0916 133.573 56.5018 131.342 56.5607C124.707 56.6787 118.014 56.5607 111.379 56.6197C109.442 56.6197 108.502 56.0889 108.561 53.9657C108.678 49.4243 108.678 44.9419 108.561 40.4005C108.502 38.4542 109.324 37.8055 111.144 37.8644C115.548 37.9234 119.951 37.8644 124.355 37.8644C131.224 37.8644 131.107 37.8644 131.107 31.0229C131.107 28.7227 130.226 28.2509 128.171 28.2509C122.593 28.3688 117.016 28.1919 111.438 28.3099C109.324 28.3688 108.443 27.7201 108.502 25.4789C108.62 21.1734 108.62 16.809 108.502 12.5035C108.443 10.3803 109.324 9.84948 111.262 9.90846C116.252 10.0264 121.243 9.96744 126.234 9.96744C132.927 9.96744 132.81 9.96744 132.81 3.30283C132.81 1.17959 132.281 0.353882 129.991 0.353882C120.01 0.47184 110.029 0.47184 100.047 0.353882C97.8751 0.353882 97.1705 1.00265 97.1705 3.18487C97.4054 13.1523 97.3467 23.1787 97.3467 33.2051Z" fill="white"/>
<path d="M157.997 37.8054C157.997 46.3574 157.997 54.9093 157.997 63.4612C157.997 64.4049 157.41 65.9384 159.054 66.0563C162.225 66.1743 165.865 67.1769 168.507 65.5845C170.269 64.5229 168.918 61.1611 169.094 58.8609C169.153 57.9762 169.094 57.0915 169.094 56.2068C169.094 41.757 169.153 27.3072 169.036 12.9163C169.036 10.6751 169.623 9.73149 171.971 9.90842C175.2 10.0854 178.43 9.9674 181.659 9.9674C187.941 9.9674 187.824 9.9674 187.883 3.47973C187.883 1.00261 187.061 0.294866 184.653 0.294866C171.736 0.412824 158.819 0.235887 145.961 0.353845C137.741 0.412824 139.327 -1.29756 139.092 7.60825C139.033 9.43659 139.738 9.9674 141.499 9.90842C146.02 9.84944 150.482 9.9674 155.003 9.84944C157.234 9.79047 158.056 10.3213 157.997 12.7394C157.88 21.0554 157.997 29.4304 157.997 37.8054Z" fill="white"/>
<path d="M6.57594 67C10.3923 67.059 13.3867 64.405 13.5041 60.9252C13.5628 57.5634 10.5097 54.5555 6.92822 54.4375C3.288 54.3786 0.117478 57.2685 5.1405e-05 60.6893C-0.117375 64.169 2.75958 66.9411 6.57594 67Z" fill="white"/>
</g>
<defs>
<clipPath id="clip0_82_1717">
<rect width="188" height="67" fill="white"/>
</clipPath>
</defs>
</svg>
