<svg width="193" height="76" viewBox="0 0 193 76" fill="none" xmlns="http://www.w3.org/2000/svg">
<g clip-path="url(#clip0_82_1706)">
<path d="M134.282 0C136.619 2.01485 139.481 3.18346 142.141 4.63415C144.035 5.64157 144.72 6.89077 144.72 9.06681C144.639 26.5557 144.639 44.0445 144.72 61.5334C144.72 63.5482 143.994 64.7169 142.261 65.6437C136.378 68.7868 130.534 72.0509 124.69 75.3149C123.24 76.1209 122.031 76.1209 120.58 75.3149C114.575 71.93 108.57 68.6257 102.485 65.3213C101.155 64.596 100.51 63.7094 100.55 62.1379C100.591 55.4486 100.591 48.7996 100.55 42.1103C100.55 40.579 101.155 39.6522 102.444 38.9268C108.57 35.6225 114.655 32.2778 120.701 28.8526C122.111 28.0467 123.28 28.1273 124.61 28.8929C127.149 30.3436 129.728 31.7137 132.589 33.3256C132.63 32.3584 132.71 31.6734 132.71 30.9883C132.71 21.5589 132.71 12.1697 132.71 2.74019C132.71 1.81336 132.67 0.886532 133.033 0C133.476 0 133.879 0 134.282 0ZM132.509 52.1845C133.96 47.7922 131.662 45.7773 128.035 43.6819C124.126 41.4252 121.265 41.3446 117.315 43.6013C113.688 45.6967 112.278 47.7922 112.278 52.0233C112.278 56.3351 113.608 58.5514 117.356 60.6469C121.225 62.7826 124.086 62.8632 127.874 60.6066C131.38 58.5111 134.04 56.6978 132.509 52.1845Z" fill="white"/>
<path d="M193 49.3234C190.824 51.58 187.882 52.6681 185.262 54.2396C184.094 54.9247 182.844 56.456 181.595 55.8112C180.225 55.1262 180.87 53.1919 181.071 51.9024C181.756 47.7921 179.943 45.737 176.396 43.6818C172.366 41.3446 169.344 41.3446 165.313 43.7221C161.928 45.737 160.639 47.6712 160.518 51.7009C160.397 56.2948 161.727 58.8335 165.958 60.6872C170.835 62.8229 175.429 65.684 180.104 68.263C180.708 68.5853 181.555 68.8271 181.595 69.7137C181.635 70.6405 180.789 70.8823 180.184 71.2046C177.686 72.615 175.147 73.9448 172.648 75.3955C171.399 76.1209 170.351 76.0806 169.102 75.3955C163.016 72.0106 156.931 68.6256 150.805 65.3213C149.395 64.5557 148.79 63.5885 148.79 61.9767C148.83 55.368 148.83 48.7593 148.79 42.1506C148.79 40.6193 149.314 39.6522 150.644 38.9268C156.77 35.6225 162.855 32.2778 168.941 28.8526C170.23 28.1272 171.359 28.0466 172.688 28.772C178.774 32.1569 184.859 35.5016 190.945 38.8865C191.67 39.2895 192.315 39.9342 192.96 40.4581C193 43.4401 193 46.3817 193 49.3234Z" fill="white"/>
<path d="M92.3289 52.1039C92.3289 55.3679 92.2886 58.632 92.3289 61.896C92.3692 63.5482 91.7244 64.6362 90.2333 65.4422C84.2285 68.7062 78.264 71.9703 72.3398 75.3149C70.8889 76.1208 69.5993 76.1611 68.1888 75.3552C62.1034 71.9703 56.018 68.6256 49.9326 65.281C48.7236 64.6362 48.2802 63.7497 48.2802 62.3796C48.3608 55.9724 48.3608 49.5652 48.2802 43.158C48.2399 40.9819 49.046 39.7327 50.9401 38.7253C56.7837 35.6224 62.5467 32.3987 68.3097 29.1346C69.6799 28.3287 70.8889 28.2078 72.2592 28.9734C78.4655 32.3987 84.6315 35.8239 90.8378 39.2492C91.9662 39.8536 92.3692 40.7804 92.3289 42.0699C92.2886 45.4549 92.3289 48.7995 92.3289 52.1039Z" fill="white"/>
<path d="M0.0403357 56.0933C0.0403357 51.5398 0.0806364 47.0265 3.49805e-05 42.473C-0.0402657 40.7402 0.523944 39.6522 2.13597 38.8059C8.14077 35.5822 14.1053 32.2778 20.0295 28.9332C21.4803 28.1273 22.6893 28.1273 24.1402 28.9332C30.0241 32.2375 35.9482 35.5016 41.8725 38.7253C43.4845 39.5716 44.1696 40.6999 44.1293 42.5535C44.0487 51.7009 44.089 60.8483 44.089 69.9958C44.089 72.333 43.7263 72.5345 41.6709 71.3658C39.132 69.9152 36.6334 68.3436 34.0138 66.9735C32.563 66.2078 32.1197 65.1601 32.1197 63.5885C32.2003 58.5111 32.1197 53.4337 32.16 48.3563C32.16 47.0668 31.7973 46.2609 30.5883 45.6564C28.1299 44.4072 25.7522 43.0774 23.3744 41.7073C22.4072 41.1432 21.5609 41.1432 20.5534 41.7073C18.1353 43.1177 15.677 44.4878 13.1784 45.7773C12.1305 46.3012 11.8081 47.0265 11.8081 48.1548C11.8484 53.3128 11.7678 58.4305 11.8484 63.5885C11.8887 65.1601 11.3648 66.2078 9.95431 66.9735C7.25416 68.4242 4.63461 70.036 1.93447 71.5673C0.403042 72.4539 -0.0805664 72.1718 -0.0805664 70.3584C3.49805e-05 65.6034 0.0403357 60.8483 0.0403357 56.0933Z" fill="white"/>
<path d="M174.381 52.0636C174.381 53.8367 172.568 55.8113 170.875 55.8113C169.223 55.8113 167.369 53.8367 167.369 52.0636C167.369 50.3309 169.344 48.316 170.956 48.3966C172.648 48.5175 174.381 50.3712 174.381 52.0636Z" fill="white"/>
</g>
<defs>
<clipPath id="clip0_82_1706">
<rect width="193" height="76" fill="white"/>
</clipPath>
</defs>
</svg>
