<svg width="129" height="109" viewBox="0 0 129 109" fill="none" xmlns="http://www.w3.org/2000/svg">
<g clip-path="url(#clip0_82_1714)">
<path d="M104.907 20.207C104.739 22.1354 104.739 24.1477 104.405 26.0762C103.484 32.6162 103.484 32.6162 109.759 35.0477C114.946 37.06 119.965 39.5754 124.064 43.5162C130.506 49.7208 130.59 57.4347 124.232 63.807C119.463 68.5862 113.607 71.6047 107.249 73.2816C103.15 74.3716 102.732 76.1324 103.735 79.6539C105.074 84.4331 105.158 89.2962 104.572 94.2431C103.401 105.395 95.4534 110.929 84.4942 108.245C77.2997 106.485 71.1927 102.628 65.5876 97.9324C63.5798 96.2554 62.3249 96.3393 60.3172 98.0162C54.5448 102.712 48.3541 106.652 40.9923 108.413C30.7024 110.761 23.4242 105.814 21.5837 95.5008C20.4962 89.4639 21.2491 83.5108 22.7549 77.6416C23.4242 74.9585 23.0059 73.7847 20.2452 72.8624C14.8911 71.1016 9.9553 68.5862 5.68877 64.8131C-1.92408 58.0216 -2.00773 49.637 5.60511 42.8454C9.62067 39.24 14.3055 36.7247 19.325 35.0477C22.4203 34.0416 23.0895 32.7 22.3366 29.5977C20.9144 23.98 20.4962 18.3623 21.6674 12.577C23.7588 3.18619 30.786 -1.50919 40.323 0.419271C48.0195 2.01235 54.5448 6.12081 60.4845 10.9839C62.5759 12.6608 63.7471 12.4931 65.7549 10.9C71.0253 6.54004 76.7977 2.85081 83.4903 0.922348C95.537 -2.51534 103.986 3.52158 104.823 16.0147C104.907 17.44 104.823 18.7816 104.823 20.207H104.907ZM63.6635 75.2939C66.3405 75.2939 68.9339 75.1262 71.6109 75.2939C75.3755 75.5454 77.8853 74.2039 79.8094 70.9339C82.4864 66.3223 85.3308 61.9623 88.2588 57.5185C89.681 55.4223 89.7646 53.5777 88.3425 51.4816C85.7491 47.5408 83.072 43.6 80.8133 39.4077C77.8016 33.7062 73.4514 31.61 67.0098 31.9454C46.3463 33.1193 52.8716 29.3462 40.9086 46.1154C36.6421 52.0685 36.6421 56.7639 40.9086 62.8008C51.1985 77.2224 45.9281 74.6231 63.6635 75.2939ZM25.5993 90.47C25.5993 90.5539 25.6829 91.8116 25.7666 92.9854C26.6868 102.628 32.2919 106.485 41.6615 103.718C47.7685 101.957 52.8716 98.3516 57.8911 94.5785C59.8152 93.1531 58.8113 92.3985 57.8074 91.057C51.3658 82.5885 43.753 76.4677 32.4592 76.4677C31.7899 76.4677 31.037 76.3 30.4514 76.0485C28.1927 74.9585 27.5234 76.2162 27.1051 78.1447C26.2685 81.75 25.6829 85.5231 25.5993 90.47ZM100.556 89.4639C100.556 85.8585 99.8872 82.2531 99.1343 78.7316C98.716 76.6354 97.7958 76.2162 95.7043 76.6354C91.1032 77.6416 86.4183 78.2285 81.7335 78.8993C80.3113 79.067 79.0565 79.2347 78.0526 80.4085C74.7063 84.1816 71.36 87.8708 67.93 91.4762C66.7588 92.7339 66.8425 93.4885 68.0973 94.4947C73.2841 98.5193 78.6382 102.209 85.0798 103.885C93.9475 106.233 99.3853 102.376 100.389 93.1531C100.473 91.9793 100.473 90.7216 100.556 89.4639ZM25.5993 19.7877C25.5156 19.7877 25.432 19.7877 25.3483 19.7877C25.8502 22.9739 26.3522 26.0762 26.6868 29.2624C26.9378 31.7777 28.1927 32.0293 30.3678 31.61C35.3872 30.52 40.4903 29.6816 45.5098 28.8431C47.0156 28.5916 48.3541 28.2562 49.4417 26.9147C52.1187 23.7285 54.9631 20.6262 57.8911 17.6916C59.2296 16.35 59.3133 15.5954 57.8074 14.4216C53.4572 11.1516 49.0234 8.04927 43.9203 6.03696C32.6265 1.67696 26.1849 5.95312 25.5993 18.1108C25.5993 18.6139 25.5993 19.2008 25.5993 19.7877ZM100.724 19.7877C100.64 19.7877 100.473 19.7877 100.389 19.7877C100.389 18.53 100.473 17.2724 100.389 16.0147C99.4689 6.62389 93.8639 2.68312 84.8288 5.1985C78.5545 6.95927 73.2841 10.5647 68.181 14.5054C66.5078 15.7631 67.0934 16.6016 68.2646 17.7754C71.109 20.71 73.786 23.6447 76.4631 26.6631C77.467 27.7531 78.5545 28.2562 80.0604 28.4239C85.3308 29.0947 90.5176 29.8493 95.7043 30.8554C98.1304 31.3585 99.3853 31.0231 99.6362 28.34C99.8872 25.5731 100.305 22.6385 100.724 19.7877ZM124.65 53.8293C124.483 50.8108 122.893 48.547 120.885 46.6185C116.117 42.0908 110.177 39.827 104.07 37.7308C102.23 37.06 101.728 37.8985 101.142 39.4916C99.4689 43.9354 97.6284 48.2954 95.788 52.5716C95.2024 53.9131 95.1187 55.087 95.788 56.5124C97.5448 60.4531 99.2179 64.3939 100.807 68.4185C101.393 69.9277 101.979 70.7662 103.819 70.0954C109.591 68.0831 115.28 65.9031 120.049 61.8785C122.391 59.7824 124.399 57.267 124.65 53.8293ZM4.35024 54.0808C4.60122 55.8416 5.18682 57.5185 6.35803 58.9439C10.7082 64.3939 16.9825 66.9093 23.2569 69.3408C24.7627 69.9277 25.181 69.0054 25.6829 67.8316C27.2724 63.9747 28.8619 60.1177 30.5351 56.2608C31.1207 55.0031 31.037 53.997 30.5351 52.7393C28.6946 48.547 26.9378 44.2708 25.2646 39.9947C24.679 38.5693 24.0934 37.8985 22.5039 38.4854C16.9825 40.5816 11.6285 42.9293 7.44557 47.2893C5.68877 49.1339 4.51756 51.3139 4.35024 54.0808ZM92.4417 49.5531C94.1148 45.3608 95.4534 41.9231 96.7919 38.4016C97.3775 36.9762 97.5448 35.6347 95.4534 35.2993C91.1032 34.5447 86.9203 33.287 81.9845 33.4547C85.4981 38.8208 88.7607 43.7677 92.4417 49.5531ZM43.8366 33.79C28.36 34.88 27.1888 36.6408 33.4631 48.4631C33.5467 48.6308 33.8814 48.7147 34.1323 48.8824C37.2277 44.0193 40.4067 39.0723 43.8366 33.79ZM72.1965 79.9893C66.0895 79.9893 60.0662 79.9893 53.7919 79.9893C61.9903 91.3085 63.6635 91.3085 71.8619 80.7439C72.0292 80.66 72.0292 80.4924 72.1965 79.9893ZM83.1557 74.0362C97.9631 73.1977 98.8833 71.8562 92.609 60.2854C92.609 60.2016 92.358 60.2016 92.0234 60.1177C89.179 64.5616 86.3347 69.0893 83.1557 74.0362ZM33.7141 59.447C32.2919 62.9685 31.1207 65.987 29.8658 68.9216C29.1965 70.347 29.3639 71.3531 31.037 71.6885C34.8016 72.3593 38.3989 73.7008 42.6654 73.5331C39.6537 68.9216 36.9767 64.5616 33.7141 59.447ZM70.4397 27.6693C70.7744 27.1662 71.1926 26.747 71.5273 26.2439C69.1012 24.2316 66.6751 22.2193 64.3327 20.0393C63.4125 19.2008 62.7432 19.117 61.9067 20.0393C59.6479 22.387 57.3892 24.7347 54.6285 27.6693C60.5681 27.6693 65.5039 27.6693 70.4397 27.6693Z" fill="white"/>
<path d="M74.4553 54.3323C74.5389 60.6208 69.5195 65.8193 63.2451 65.9869C56.9708 66.0708 51.8677 61.04 51.7004 54.6677C51.6167 48.2954 56.5525 43.1808 62.8268 43.0131C69.1848 42.9293 74.3716 48.0439 74.4553 54.3323Z" fill="white"/>
</g>
<defs>
<clipPath id="clip0_82_1714">
<rect width="129" height="109" fill="white"/>
</clipPath>
</defs>
</svg>
