<svg width="125" height="125" viewBox="0 0 125 125" fill="none" xmlns="http://www.w3.org/2000/svg">
<path d="M59.5923 6.08372e-05C62.6311 3.0062e-05 62.9758 7.25086e-05 65.1415 6.08372e-05C67.3071 4.91658e-05 69.0571 0.600618 71.0029 0.912909C84.2873 3.07493 95.8901 8.57606 105.571 17.9448C106.82 19.1459 107.541 19.1459 108.574 17.7046C110.52 14.966 111.985 11.9392 113.907 8.57606C115.252 13.0923 116.525 17.08 117.654 21.1158C120.994 32.8627 124.189 44.6337 124.333 56.9812C124.344 57.9671 124.333 58.0176 124.333 59.3461C124.333 59.8986 124.333 60.862 124.333 61.4145C124.333 63.1382 124.249 63.1382 124.261 64.6684C124.285 67.8153 123.78 70.8902 123.204 73.9651C117.054 106.876 85.4644 130.057 49.4068 122.779C40.3743 120.953 32.1827 117.061 24.8078 111.296C29.9486 109.062 31.1978 107.332 30.405 103.729C29.8285 101.062 27.6184 99.4288 24.7358 99.5249C21.4927 99.645 19.8592 101.567 19.1626 106.083C18.9944 106.035 18.7782 106.035 18.6821 105.915C9.62566 96.7383 3.90833 85.8321 1.50609 73.1243C1.07368 70.9142 0.232901 68.6036 0.232901 66.4701C0.232901 63.5153 -0.291126 60.5137 0.232901 57.6058C0.922384 53.7797 1.33793 51.7443 1.98653 48.8376C7.51169 23.9023 28.5823 8.70212 52.89 1.1051C56.4257 6.08226e-05 56.4011 9.31548e-05 59.5923 6.08372e-05ZM37.2995 105.242C39.0051 105.795 40.5665 105.002 42.152 104.954C56.2532 104.57 70.4024 105.795 84.5035 104.474C90.9655 103.873 97.2354 102.408 102.953 99.2607C116.549 91.8137 121.354 79.2019 122.387 64.7645C123.564 47.9488 119.48 31.9018 114.387 16.0711C114.147 15.3264 114.171 14.1252 113.234 14.0051C112.129 13.861 112.057 15.2062 111.529 15.9029C110.976 16.6476 110.592 17.4884 110.039 18.2331C98.7248 33.4393 83.3264 40.8862 64.637 41.9192C58.5593 42.2555 52.4816 42.3996 46.5241 43.6728C28.8436 47.4683 15.6313 62.8907 18.8983 81.5081C19.8592 87.0332 22.2134 91.8137 26.9458 95.1768C28.6995 96.402 30.381 97.0746 32.5911 96.2819C34.4889 95.6092 36.5308 95.4651 38.5006 95.0087C48.4459 92.7025 58.4872 90.6606 67.8319 86.4567C84.1432 79.1059 97.1153 67.9354 105.907 52.1767C98.4845 71.6829 85.4884 86.0483 66.3906 94.6483C57.9107 98.4679 48.7101 100.27 40.014 103.489C39.0291 103.825 37.828 103.873 37.2995 105.242Z" fill="white"/>
</svg>
