<svg width="863" height="428" viewBox="0 0 863 428" fill="none" xmlns="http://www.w3.org/2000/svg">
<circle cx="335.5" cy="160.5" r="114.5" fill="white" fill-opacity="0.49" stroke="white" stroke-width="2"/>
<path d="M288.103 9.08L283.807 26H281.143L277.231 12.176L273.319 26H270.655L266.335 9.08H268.759L271.999 23.456L276.007 9.08H278.431L282.439 23.408L285.703 9.08H288.103ZM290.278 8.96C290.278 8.56 290.414 8.24 290.686 8C290.958 7.744 291.318 7.616 291.766 7.616C292.214 7.616 292.574 7.744 292.846 8C293.118 8.24 293.254 8.56 293.254 8.96C293.254 9.36 293.118 9.688 292.846 9.944C292.574 10.184 292.214 10.304 291.766 10.304C291.318 10.304 290.958 10.184 290.686 9.944C290.414 9.688 290.278 9.36 290.278 8.96ZM292.846 12.824V26H290.662V12.824H292.846ZM298.541 15.488C298.973 14.576 299.605 13.872 300.437 13.376C301.269 12.864 302.261 12.608 303.413 12.608V14.984H302.741C301.509 14.984 300.501 15.304 299.717 15.944C298.933 16.568 298.541 17.608 298.541 19.064V26H296.357V12.824H298.541V15.488ZM317.688 18.68C317.688 19.144 317.656 19.544 317.592 19.88H307.056C307.104 21.384 307.528 22.512 308.328 23.264C309.144 24.016 310.136 24.392 311.304 24.392C312.36 24.392 313.24 24.128 313.944 23.6C314.664 23.056 315.104 22.336 315.264 21.44H317.592C317.432 22.352 317.072 23.168 316.512 23.888C315.968 24.608 315.256 25.168 314.376 25.568C313.496 25.968 312.504 26.168 311.4 26.168C310.136 26.168 309.016 25.896 308.04 25.352C307.064 24.808 306.296 24.032 305.736 23.024C305.192 22 304.92 20.8 304.92 19.424C304.92 18.048 305.192 16.848 305.736 15.824C306.296 14.8 307.064 14.016 308.04 13.472C309.016 12.928 310.136 12.656 311.4 12.656C312.68 12.656 313.792 12.928 314.736 13.472C315.696 14.016 316.424 14.744 316.92 15.656C317.432 16.568 317.688 17.576 317.688 18.68ZM315.48 18.824C315.528 17.848 315.368 17.032 315 16.376C314.632 15.72 314.128 15.232 313.488 14.912C312.848 14.592 312.152 14.432 311.4 14.432C310.2 14.432 309.192 14.808 308.376 15.56C307.56 16.296 307.12 17.384 307.056 18.824H315.48ZM326.377 9.704C325.209 9.688 324.393 9.888 323.929 10.304C323.481 10.72 323.257 11.44 323.257 12.464V12.824H326.377V14.744H323.257V26H321.073V14.744H319.177V12.824H321.073V12.296C321.073 9.144 322.841 7.64 326.377 7.784V9.704ZM330.932 15.488C331.364 14.576 331.996 13.872 332.828 13.376C333.66 12.864 334.652 12.608 335.804 12.608V14.984H335.132C333.9 14.984 332.892 15.304 332.108 15.944C331.324 16.568 330.932 17.608 330.932 19.064V26H328.748V12.824H330.932V15.488ZM343.359 12.656C344.639 12.656 345.719 12.976 346.599 13.616C347.495 14.256 348.119 15.112 348.471 16.184V12.824H350.655V26H348.471V22.64C348.119 23.712 347.495 24.568 346.599 25.208C345.719 25.848 344.639 26.168 343.359 26.168C342.191 26.168 341.151 25.896 340.239 25.352C339.327 24.808 338.607 24.032 338.079 23.024C337.567 22 337.311 20.8 337.311 19.424C337.311 18.048 337.567 16.848 338.079 15.824C338.607 14.8 339.327 14.016 340.239 13.472C341.151 12.928 342.191 12.656 343.359 12.656ZM343.983 14.6C342.639 14.6 341.559 15.032 340.743 15.896C339.943 16.744 339.543 17.92 339.543 19.424C339.543 20.928 339.943 22.112 340.743 22.976C341.559 23.824 342.639 24.248 343.983 24.248C344.847 24.248 345.615 24.048 346.287 23.648C346.975 23.248 347.511 22.688 347.895 21.968C348.279 21.232 348.471 20.384 348.471 19.424C348.471 18.464 348.279 17.616 347.895 16.88C347.511 16.144 346.975 15.584 346.287 15.2C345.615 14.8 344.847 14.6 343.983 14.6ZM370.331 12.608C371.867 12.608 373.099 13.104 374.027 14.096C374.971 15.072 375.443 16.488 375.443 18.344V26H373.259V18.536C373.259 17.24 372.939 16.248 372.299 15.56C371.675 14.872 370.811 14.528 369.707 14.528C368.555 14.528 367.627 14.912 366.923 15.68C366.235 16.432 365.891 17.544 365.891 19.016V26H363.707V18.536C363.707 17.24 363.387 16.248 362.747 15.56C362.107 14.872 361.243 14.528 360.155 14.528C358.987 14.528 358.051 14.912 357.347 15.68C356.659 16.432 356.315 17.544 356.315 19.016V26H354.131V12.824H356.315V15.824C356.635 14.784 357.203 13.992 358.019 13.448C358.851 12.888 359.803 12.608 360.875 12.608C361.995 12.608 362.963 12.896 363.779 13.472C364.611 14.032 365.203 14.864 365.555 15.968C365.923 14.896 366.539 14.072 367.403 13.496C368.267 12.904 369.243 12.608 370.331 12.608ZM390.954 18.68C390.954 19.144 390.922 19.544 390.858 19.88H380.322C380.37 21.384 380.794 22.512 381.594 23.264C382.41 24.016 383.402 24.392 384.57 24.392C385.626 24.392 386.506 24.128 387.21 23.6C387.93 23.056 388.37 22.336 388.53 21.44H390.858C390.698 22.352 390.338 23.168 389.778 23.888C389.234 24.608 388.522 25.168 387.642 25.568C386.762 25.968 385.77 26.168 384.666 26.168C383.402 26.168 382.282 25.896 381.306 25.352C380.33 24.808 379.562 24.032 379.002 23.024C378.458 22 378.186 20.8 378.186 19.424C378.186 18.048 378.458 16.848 379.002 15.824C379.562 14.8 380.33 14.016 381.306 13.472C382.282 12.928 383.402 12.656 384.666 12.656C385.946 12.656 387.058 12.928 388.002 13.472C388.962 14.016 389.69 14.744 390.186 15.656C390.698 16.568 390.954 17.576 390.954 18.68ZM388.746 18.824C388.794 17.848 388.634 17.032 388.266 16.376C387.898 15.72 387.394 15.232 386.754 14.912C386.114 14.592 385.418 14.432 384.666 14.432C383.466 14.432 382.458 14.808 381.642 15.56C380.826 16.296 380.386 17.384 380.322 18.824H388.746ZM397.939 12.656C399.427 12.656 400.619 13.048 401.515 13.832C402.427 14.6 402.979 15.64 403.171 16.952H401.083C400.987 16.168 400.659 15.528 400.099 15.032C399.555 14.52 398.819 14.264 397.891 14.264C397.107 14.264 396.491 14.456 396.043 14.84C395.611 15.208 395.395 15.712 395.395 16.352C395.395 16.832 395.539 17.224 395.827 17.528C396.131 17.816 396.499 18.04 396.931 18.2C397.379 18.344 397.987 18.504 398.755 18.68C399.731 18.904 400.515 19.136 401.107 19.376C401.715 19.6 402.227 19.968 402.643 20.48C403.075 20.992 403.291 21.68 403.291 22.544C403.291 23.616 402.883 24.488 402.067 25.16C401.267 25.832 400.195 26.168 398.851 26.168C397.283 26.168 396.003 25.792 395.011 25.04C394.019 24.288 393.435 23.24 393.259 21.896H395.371C395.451 22.696 395.795 23.344 396.403 23.84C397.027 24.336 397.843 24.584 398.851 24.584C399.603 24.584 400.187 24.392 400.603 24.008C401.035 23.624 401.251 23.12 401.251 22.496C401.251 21.984 401.099 21.576 400.795 21.272C400.491 20.968 400.115 20.736 399.667 20.576C399.219 20.416 398.603 20.248 397.819 20.072C396.843 19.848 396.059 19.624 395.467 19.4C394.891 19.176 394.395 18.824 393.979 18.344C393.579 17.848 393.379 17.184 393.379 16.352C393.379 15.248 393.787 14.36 394.603 13.688C395.419 13 396.531 12.656 397.939 12.656Z" fill="white"/>
<path d="M681.583 13.368V30H679.399V16.728L674.095 30H672.151L666.823 16.776V30H664.639V13.368H667.255L673.159 27.336L678.967 13.368H681.583ZM686.18 13.08L691.34 27.576L696.572 13.08H698.948L692.732 30H689.972L683.78 13.08H686.18ZM703.338 23.184V30H701.154V13.08H706.53C708.466 13.08 709.914 13.536 710.874 14.448C711.834 15.344 712.314 16.576 712.314 18.144C712.314 19.728 711.818 20.968 710.826 21.864C709.834 22.744 708.402 23.184 706.53 23.184H703.338ZM706.338 21.36C707.666 21.36 708.618 21.08 709.194 20.52C709.786 19.96 710.082 19.168 710.082 18.144C710.082 17.088 709.786 16.288 709.194 15.744C708.618 15.184 707.666 14.904 706.338 14.904H703.338V21.36H706.338Z" fill="white"/>
<path d="M729 260H861" stroke="white" stroke-width="3"/>
<path d="M149.2 270V261.8H154V239.3H147.7V233.65L158.8 231.1H167.2V261.8H171.4V270H149.2Z" fill="white"/>
<path d="M151.287 338L146.871 331.088H144.495V338H142.311V321.08H147.879C149.799 321.08 151.239 321.544 152.199 322.472C153.159 323.384 153.639 324.6 153.639 326.12C153.639 327.496 153.255 328.608 152.487 329.456C151.719 330.288 150.607 330.808 149.151 331.016L153.759 338H151.287ZM144.495 329.504H147.687C150.167 329.504 151.407 328.416 151.407 326.24C151.407 324.064 150.167 322.976 147.687 322.976H144.495V329.504ZM168.423 330.68C168.423 331.144 168.391 331.544 168.327 331.88H157.791C157.839 333.384 158.263 334.512 159.063 335.264C159.879 336.016 160.871 336.392 162.039 336.392C163.095 336.392 163.975 336.128 164.679 335.6C165.399 335.056 165.839 334.336 165.999 333.44H168.327C168.167 334.352 167.807 335.168 167.247 335.888C166.703 336.608 165.991 337.168 165.111 337.568C164.231 337.968 163.239 338.168 162.135 338.168C160.871 338.168 159.751 337.896 158.775 337.352C157.799 336.808 157.031 336.032 156.471 335.024C155.927 334 155.655 332.8 155.655 331.424C155.655 330.048 155.927 328.848 156.471 327.824C157.031 326.8 157.799 326.016 158.775 325.472C159.751 324.928 160.871 324.656 162.135 324.656C163.415 324.656 164.527 324.928 165.471 325.472C166.431 326.016 167.159 326.744 167.655 327.656C168.167 328.568 168.423 329.576 168.423 330.68ZM166.215 330.824C166.263 329.848 166.103 329.032 165.735 328.376C165.367 327.72 164.863 327.232 164.223 326.912C163.583 326.592 162.887 326.432 162.135 326.432C160.935 326.432 159.927 326.808 159.111 327.56C158.295 328.296 157.855 329.384 157.791 330.824H166.215ZM175.407 324.656C176.895 324.656 178.087 325.048 178.983 325.832C179.895 326.6 180.447 327.64 180.639 328.952H178.551C178.455 328.168 178.127 327.528 177.567 327.032C177.023 326.52 176.287 326.264 175.359 326.264C174.575 326.264 173.959 326.456 173.511 326.84C173.079 327.208 172.863 327.712 172.863 328.352C172.863 328.832 173.007 329.224 173.295 329.528C173.599 329.816 173.967 330.04 174.399 330.2C174.847 330.344 175.455 330.504 176.223 330.68C177.199 330.904 177.983 331.136 178.575 331.376C179.183 331.6 179.695 331.968 180.111 332.48C180.543 332.992 180.759 333.68 180.759 334.544C180.759 335.616 180.351 336.488 179.535 337.16C178.735 337.832 177.663 338.168 176.319 338.168C174.751 338.168 173.471 337.792 172.479 337.04C171.487 336.288 170.903 335.24 170.727 333.896H172.839C172.919 334.696 173.263 335.344 173.871 335.84C174.495 336.336 175.311 336.584 176.319 336.584C177.071 336.584 177.655 336.392 178.071 336.008C178.503 335.624 178.719 335.12 178.719 334.496C178.719 333.984 178.567 333.576 178.263 333.272C177.959 332.968 177.583 332.736 177.135 332.576C176.687 332.416 176.071 332.248 175.287 332.072C174.311 331.848 173.527 331.624 172.935 331.4C172.359 331.176 171.863 330.824 171.447 330.344C171.047 329.848 170.847 329.184 170.847 328.352C170.847 327.248 171.255 326.36 172.071 325.688C172.887 325 173.999 324.656 175.407 324.656ZM195.798 330.68C195.798 331.144 195.766 331.544 195.702 331.88H185.166C185.214 333.384 185.638 334.512 186.438 335.264C187.254 336.016 188.246 336.392 189.414 336.392C190.47 336.392 191.35 336.128 192.054 335.6C192.774 335.056 193.214 334.336 193.374 333.44H195.702C195.542 334.352 195.182 335.168 194.622 335.888C194.078 336.608 193.366 337.168 192.486 337.568C191.606 337.968 190.614 338.168 189.51 338.168C188.246 338.168 187.126 337.896 186.15 337.352C185.174 336.808 184.406 336.032 183.846 335.024C183.302 334 183.03 332.8 183.03 331.424C183.03 330.048 183.302 328.848 183.846 327.824C184.406 326.8 185.174 326.016 186.15 325.472C187.126 324.928 188.246 324.656 189.51 324.656C190.79 324.656 191.902 324.928 192.846 325.472C193.806 326.016 194.534 326.744 195.03 327.656C195.542 328.568 195.798 329.576 195.798 330.68ZM193.59 330.824C193.638 329.848 193.478 329.032 193.11 328.376C192.742 327.72 192.238 327.232 191.598 326.912C190.958 326.592 190.262 326.432 189.51 326.432C188.31 326.432 187.302 326.808 186.486 327.56C185.67 328.296 185.23 329.384 185.166 330.824H193.59ZM200.838 327.488C201.27 326.576 201.902 325.872 202.734 325.376C203.566 324.864 204.558 324.608 205.71 324.608V326.984H205.038C203.806 326.984 202.798 327.304 202.014 327.944C201.23 328.568 200.838 329.608 200.838 331.064V338H198.654V324.824H200.838V327.488ZM213.697 324.656C215.377 324.656 216.769 325.104 217.873 326C218.977 326.896 219.657 328.096 219.913 329.6H217.609C217.449 328.656 217.009 327.92 216.289 327.392C215.585 326.848 214.705 326.576 213.649 326.576C212.881 326.576 212.177 326.752 211.537 327.104C210.913 327.456 210.409 328 210.025 328.736C209.641 329.456 209.449 330.352 209.449 331.424C209.449 332.496 209.641 333.4 210.025 334.136C210.409 334.856 210.913 335.392 211.537 335.744C212.177 336.096 212.881 336.272 213.649 336.272C214.705 336.272 215.585 336 216.289 335.456C217.009 334.912 217.449 334.168 217.609 333.224H219.913C219.657 334.744 218.977 335.952 217.873 336.848C216.769 337.728 215.377 338.168 213.697 338.168C212.433 338.168 211.313 337.896 210.337 337.352C209.361 336.808 208.593 336.032 208.033 335.024C207.489 334 207.217 332.8 207.217 331.424C207.217 330.048 207.489 328.848 208.033 327.824C208.593 326.8 209.361 326.016 210.337 325.472C211.313 324.928 212.433 324.656 213.697 324.656ZM229.708 324.608C231.244 324.608 232.484 325.104 233.428 326.096C234.372 327.072 234.844 328.488 234.844 330.344V338H232.66V330.536C232.66 329.224 232.324 328.216 231.652 327.512C230.98 326.808 230.068 326.456 228.916 326.456C227.716 326.456 226.756 326.848 226.036 327.632C225.316 328.4 224.956 329.528 224.956 331.016V338H222.772V320.24H224.956V327.944C225.292 326.872 225.884 326.048 226.732 325.472C227.596 324.896 228.588 324.608 229.708 324.608Z" fill="white"/>
<path d="M734.52 246.856H739.992V250H730.416V233.032H734.52V246.856ZM754.597 242.944C754.597 243.28 754.557 243.648 754.477 244.048H745.189C745.237 245.056 745.493 245.784 745.957 246.232C746.421 246.664 747.013 246.88 747.733 246.88C748.341 246.88 748.845 246.728 749.245 246.424C749.645 246.12 749.909 245.728 750.037 245.248H754.381C754.205 246.192 753.821 247.04 753.229 247.792C752.637 248.528 751.885 249.112 750.973 249.544C750.061 249.96 749.045 250.168 747.925 250.168C746.613 250.168 745.445 249.896 744.421 249.352C743.413 248.792 742.621 247.992 742.045 246.952C741.469 245.912 741.181 244.696 741.181 243.304C741.181 241.896 741.461 240.68 742.021 239.656C742.597 238.616 743.397 237.824 744.421 237.28C745.445 236.72 746.613 236.44 747.925 236.44C749.253 236.44 750.421 236.712 751.429 237.256C752.437 237.8 753.213 238.568 753.757 239.56C754.317 240.536 754.597 241.664 754.597 242.944ZM750.445 242.32C750.461 241.44 750.221 240.784 749.725 240.352C749.245 239.904 748.645 239.68 747.925 239.68C747.173 239.68 746.549 239.904 746.053 240.352C745.557 240.8 745.277 241.456 745.213 242.32H750.445ZM764.32 246.472V250H762.472C760.904 250 759.68 249.616 758.8 248.848C757.936 248.064 757.504 246.776 757.504 244.984V240.064H755.704V236.608H757.504V233.32H761.608V236.608H764.296V240.064H761.608V245.056C761.608 245.584 761.712 245.952 761.92 246.16C762.144 246.368 762.512 246.472 763.024 246.472H764.32ZM771.427 233.176L765.643 235.648V232.864L771.427 230.08V233.176ZM778.132 236.44C779.828 236.44 781.18 236.864 782.188 237.712C783.212 238.56 783.852 239.68 784.108 241.072H780.268C780.156 240.528 779.9 240.104 779.5 239.8C779.116 239.48 778.628 239.32 778.036 239.32C777.572 239.32 777.22 239.424 776.98 239.632C776.74 239.824 776.62 240.104 776.62 240.472C776.62 240.888 776.836 241.2 777.268 241.408C777.716 241.616 778.412 241.824 779.356 242.032C780.38 242.272 781.22 242.52 781.876 242.776C782.532 243.016 783.1 243.416 783.58 243.976C784.06 244.536 784.3 245.288 784.3 246.232C784.3 247 784.092 247.68 783.676 248.272C783.26 248.864 782.66 249.328 781.876 249.664C781.092 250 780.164 250.168 779.092 250.168C777.284 250.168 775.836 249.768 774.748 248.968C773.66 248.168 772.996 247.024 772.756 245.536H776.716C776.78 246.112 777.02 246.552 777.436 246.856C777.868 247.16 778.42 247.312 779.092 247.312C779.556 247.312 779.908 247.208 780.148 247C780.388 246.776 780.508 246.488 780.508 246.136C780.508 245.672 780.284 245.344 779.836 245.152C779.404 244.944 778.692 244.728 777.7 244.504C776.708 244.296 775.892 244.072 775.252 243.832C774.612 243.592 774.06 243.208 773.596 242.68C773.132 242.136 772.9 241.4 772.9 240.472C772.9 239.272 773.356 238.304 774.268 237.568C775.18 236.816 776.468 236.44 778.132 236.44ZM738.768 272.44C739.872 272.44 740.856 272.72 741.72 273.28C742.6 273.824 743.288 274.616 743.784 275.656C744.296 276.68 744.552 277.896 744.552 279.304C744.552 280.696 744.296 281.912 743.784 282.952C743.288 283.992 742.6 284.792 741.72 285.352C740.856 285.896 739.872 286.168 738.768 286.168C737.744 286.168 736.864 285.936 736.128 285.472C735.392 285.008 734.856 284.376 734.52 283.576V292.384H730.416V272.608H734.52V275.032C734.856 274.232 735.392 273.6 736.128 273.136C736.864 272.672 737.744 272.44 738.768 272.44ZM737.448 276.04C736.584 276.04 735.872 276.336 735.312 276.928C734.768 277.504 734.496 278.296 734.496 279.304C734.496 280.296 734.768 281.088 735.312 281.68C735.872 282.272 736.584 282.568 737.448 282.568C738.328 282.568 739.032 282.28 739.56 281.704C740.104 281.128 740.376 280.328 740.376 279.304C740.376 278.28 740.104 277.48 739.56 276.904C739.032 276.328 738.328 276.04 737.448 276.04ZM760.002 272.608V286H755.874V283.576C755.49 284.36 754.914 284.984 754.146 285.448C753.394 285.912 752.514 286.144 751.506 286.144C749.97 286.144 748.746 285.632 747.834 284.608C746.938 283.584 746.49 282.176 746.49 280.384V272.608H750.57V279.88C750.57 280.792 750.802 281.504 751.266 282.016C751.746 282.512 752.386 282.76 753.186 282.76C754.018 282.76 754.674 282.496 755.154 281.968C755.634 281.44 755.874 280.688 755.874 279.712V272.608H760.002ZM771.182 272.44C772.286 272.44 773.27 272.72 774.134 273.28C775.014 273.824 775.702 274.616 776.198 275.656C776.71 276.68 776.966 277.896 776.966 279.304C776.966 280.696 776.71 281.912 776.198 282.952C775.702 283.992 775.014 284.792 774.134 285.352C773.27 285.896 772.286 286.168 771.182 286.168C770.158 286.168 769.278 285.936 768.542 285.472C767.806 285.008 767.27 284.376 766.934 283.576V286H762.83V268.24H766.934V275.032C767.27 274.232 767.806 273.6 768.542 273.136C769.278 272.672 770.158 272.44 771.182 272.44ZM769.862 276.04C768.998 276.04 768.286 276.336 767.726 276.928C767.182 277.504 766.91 278.296 766.91 279.304C766.91 280.296 767.182 281.088 767.726 281.68C768.286 282.272 768.998 282.568 769.862 282.568C770.742 282.568 771.446 282.28 771.974 281.704C772.518 281.128 772.79 280.328 772.79 279.304C772.79 278.28 772.518 277.48 771.974 276.904C771.446 276.328 770.742 276.04 769.862 276.04ZM783.2 268.24V286H779.096V268.24H783.2ZM785.649 268.84C785.649 268.216 785.873 267.704 786.321 267.304C786.769 266.888 787.361 266.68 788.097 266.68C788.833 266.68 789.425 266.888 789.873 267.304C790.321 267.704 790.545 268.216 790.545 268.84C790.545 269.448 790.321 269.96 789.873 270.376C789.425 270.776 788.833 270.976 788.097 270.976C787.361 270.976 786.769 270.776 786.321 270.376C785.873 269.96 785.649 269.448 785.649 268.84ZM790.137 272.608V286H786.033V272.608H790.137ZM797.843 272.44C799.539 272.44 800.891 272.864 801.899 273.712C802.923 274.56 803.563 275.68 803.819 277.072H799.979C799.867 276.528 799.611 276.104 799.211 275.8C798.827 275.48 798.339 275.32 797.747 275.32C797.283 275.32 796.931 275.424 796.691 275.632C796.451 275.824 796.331 276.104 796.331 276.472C796.331 276.888 796.547 277.2 796.979 277.408C797.427 277.616 798.123 277.824 799.067 278.032C800.091 278.272 800.931 278.52 801.587 278.776C802.243 279.016 802.811 279.416 803.291 279.976C803.771 280.536 804.011 281.288 804.011 282.232C804.011 283 803.803 283.68 803.387 284.272C802.971 284.864 802.371 285.328 801.587 285.664C800.803 286 799.875 286.168 798.803 286.168C796.995 286.168 795.547 285.768 794.459 284.968C793.371 284.168 792.707 283.024 792.467 281.536H796.427C796.491 282.112 796.731 282.552 797.147 282.856C797.579 283.16 798.131 283.312 798.803 283.312C799.267 283.312 799.619 283.208 799.859 283C800.099 282.776 800.219 282.488 800.219 282.136C800.219 281.672 799.995 281.344 799.547 281.152C799.115 280.944 798.403 280.728 797.411 280.504C796.419 280.296 795.603 280.072 794.963 279.832C794.323 279.592 793.771 279.208 793.307 278.68C792.843 278.136 792.611 277.4 792.611 276.472C792.611 275.272 793.067 274.304 793.979 273.568C794.891 272.816 796.179 272.44 797.843 272.44ZM814.779 272.464C816.315 272.464 817.531 272.976 818.427 274C819.339 275.024 819.795 276.432 819.795 278.224V286H815.691V278.704C815.691 277.808 815.451 277.112 814.971 276.616C814.507 276.104 813.883 275.848 813.099 275.848C812.267 275.848 811.603 276.112 811.107 276.64C810.627 277.168 810.387 277.92 810.387 278.896V286H806.283V268.24H810.387V275.056C810.771 274.256 811.339 273.624 812.091 273.16C812.859 272.696 813.755 272.464 814.779 272.464Z" fill="white"/>
<path d="M292.28 221.32V227H290.46V212.9H294.94C296.553 212.9 297.76 213.28 298.56 214.04C299.36 214.787 299.76 215.813 299.76 217.12C299.76 218.44 299.347 219.473 298.52 220.22C297.693 220.953 296.5 221.32 294.94 221.32H292.28ZM294.78 219.8C295.887 219.8 296.68 219.567 297.16 219.1C297.653 218.633 297.9 217.973 297.9 217.12C297.9 216.24 297.653 215.573 297.16 215.12C296.68 214.653 295.887 214.42 294.78 214.42H292.28V219.8H294.78ZM303.706 218.24C304.066 217.48 304.592 216.893 305.286 216.48C305.979 216.053 306.806 215.84 307.766 215.84V217.82H307.206C306.179 217.82 305.339 218.087 304.686 218.62C304.032 219.14 303.706 220.007 303.706 221.22V227H301.886V216.02H303.706V218.24ZM314.542 215.88C315.595 215.88 316.535 216.107 317.362 216.56C318.202 217.013 318.855 217.667 319.322 218.52C319.802 219.373 320.042 220.373 320.042 221.52C320.042 222.667 319.802 223.667 319.322 224.52C318.855 225.36 318.202 226.007 317.362 226.46C316.535 226.913 315.595 227.14 314.542 227.14C313.488 227.14 312.542 226.913 311.702 226.46C310.875 226.007 310.222 225.36 309.742 224.52C309.262 223.667 309.022 222.667 309.022 221.52C309.022 220.373 309.262 219.373 309.742 218.52C310.222 217.667 310.875 217.013 311.702 216.56C312.542 216.107 313.488 215.88 314.542 215.88ZM314.542 217.48C313.888 217.48 313.282 217.627 312.722 217.92C312.175 218.213 311.728 218.667 311.382 219.28C311.048 219.88 310.882 220.627 310.882 221.52C310.882 222.4 311.048 223.147 311.382 223.76C311.728 224.36 312.175 224.807 312.722 225.1C313.282 225.393 313.888 225.54 314.542 225.54C315.195 225.54 315.795 225.393 316.342 225.1C316.902 224.807 317.348 224.36 317.682 223.76C318.028 223.147 318.202 222.4 318.202 221.52C318.202 220.627 318.028 219.88 317.682 219.28C317.348 218.667 316.902 218.213 316.342 217.92C315.795 217.627 315.195 217.48 314.542 217.48ZM327.653 225.4V227H326.293C325.173 227 324.333 226.733 323.773 226.2C323.226 225.667 322.953 224.773 322.953 223.52V217.6H321.313V216.02H322.953V213.28H324.793V216.02H327.633V217.6H324.793V223.56C324.793 224.267 324.92 224.753 325.173 225.02C325.44 225.273 325.893 225.4 326.533 225.4H327.653ZM334.854 215.88C335.907 215.88 336.847 216.107 337.674 216.56C338.514 217.013 339.167 217.667 339.634 218.52C340.114 219.373 340.354 220.373 340.354 221.52C340.354 222.667 340.114 223.667 339.634 224.52C339.167 225.36 338.514 226.007 337.674 226.46C336.847 226.913 335.907 227.14 334.854 227.14C333.801 227.14 332.854 226.913 332.014 226.46C331.187 226.007 330.534 225.36 330.054 224.52C329.574 223.667 329.334 222.667 329.334 221.52C329.334 220.373 329.574 219.373 330.054 218.52C330.534 217.667 331.187 217.013 332.014 216.56C332.854 216.107 333.801 215.88 334.854 215.88ZM334.854 217.48C334.201 217.48 333.594 217.627 333.034 217.92C332.487 218.213 332.041 218.667 331.694 219.28C331.361 219.88 331.194 220.627 331.194 221.52C331.194 222.4 331.361 223.147 331.694 223.76C332.041 224.36 332.487 224.807 333.034 225.1C333.594 225.393 334.201 225.54 334.854 225.54C335.507 225.54 336.107 225.393 336.654 225.1C337.214 224.807 337.661 224.36 337.994 223.76C338.341 223.147 338.514 222.4 338.514 221.52C338.514 220.627 338.341 219.88 337.994 219.28C337.661 218.667 337.214 218.213 336.654 217.92C336.107 217.627 335.507 217.48 334.854 217.48ZM347.966 225.4V227H346.606C345.486 227 344.646 226.733 344.086 226.2C343.539 225.667 343.266 224.773 343.266 223.52V217.6H341.626V216.02H343.266V213.28H345.106V216.02H347.946V217.6H345.106V223.56C345.106 224.267 345.232 224.753 345.486 225.02C345.752 225.273 346.206 225.4 346.846 225.4H347.966ZM350.947 216.02L354.507 224.66L357.807 216.02H359.827L353.307 232.2H351.247L353.527 226.82L348.907 216.02H350.947ZM367.555 215.88C368.528 215.88 369.395 216.107 370.155 216.56C370.915 217.013 371.508 217.667 371.935 218.52C372.375 219.373 372.595 220.373 372.595 221.52C372.595 222.667 372.375 223.667 371.935 224.52C371.508 225.36 370.915 226.007 370.155 226.46C369.395 226.913 368.528 227.14 367.555 227.14C366.488 227.14 365.582 226.873 364.835 226.34C364.102 225.793 363.595 225.08 363.315 224.2V232.2H361.495V216.02H363.315V218.82C363.595 217.94 364.102 217.233 364.835 216.7C365.582 216.153 366.488 215.88 367.555 215.88ZM367.035 217.5C366.328 217.5 365.688 217.667 365.115 218C364.542 218.32 364.095 218.787 363.775 219.4C363.455 220.013 363.295 220.72 363.295 221.52C363.295 222.32 363.455 223.027 363.775 223.64C364.095 224.24 364.542 224.707 365.115 225.04C365.688 225.373 366.328 225.54 367.035 225.54C368.168 225.54 369.068 225.187 369.735 224.48C370.415 223.76 370.755 222.773 370.755 221.52C370.755 220.267 370.415 219.287 369.735 218.58C369.068 217.86 368.168 217.5 367.035 217.5ZM385.072 220.9C385.072 221.287 385.045 221.62 384.992 221.9H376.212C376.252 223.153 376.605 224.093 377.272 224.72C377.952 225.347 378.778 225.66 379.752 225.66C380.632 225.66 381.365 225.44 381.952 225C382.552 224.547 382.918 223.947 383.052 223.2H384.992C384.858 223.96 384.558 224.64 384.092 225.24C383.638 225.84 383.045 226.307 382.312 226.64C381.578 226.973 380.752 227.14 379.832 227.14C378.778 227.14 377.845 226.913 377.032 226.46C376.218 226.007 375.578 225.36 375.112 224.52C374.658 223.667 374.432 222.667 374.432 221.52C374.432 220.373 374.658 219.373 375.112 218.52C375.578 217.667 376.218 217.013 377.032 216.56C377.845 216.107 378.778 215.88 379.832 215.88C380.898 215.88 381.825 216.107 382.612 216.56C383.412 217.013 384.018 217.62 384.432 218.38C384.858 219.14 385.072 219.98 385.072 220.9ZM383.232 221.02C383.272 220.207 383.138 219.527 382.832 218.98C382.525 218.433 382.105 218.027 381.572 217.76C381.038 217.493 380.458 217.36 379.832 217.36C378.832 217.36 377.992 217.673 377.312 218.3C376.632 218.913 376.265 219.82 376.212 221.02H383.232Z" fill="white"/>
<path d="M404.542 394.08V395.856H399.766V411H397.582V395.856H392.806V394.08H404.542ZM418.833 403.68C418.833 404.144 418.801 404.544 418.737 404.88H408.201C408.249 406.384 408.673 407.512 409.473 408.264C410.289 409.016 411.281 409.392 412.449 409.392C413.505 409.392 414.385 409.128 415.089 408.6C415.809 408.056 416.249 407.336 416.409 406.44H418.737C418.577 407.352 418.217 408.168 417.657 408.888C417.113 409.608 416.401 410.168 415.521 410.568C414.641 410.968 413.649 411.168 412.545 411.168C411.281 411.168 410.161 410.896 409.185 410.352C408.209 409.808 407.441 409.032 406.881 408.024C406.337 407 406.065 405.8 406.065 404.424C406.065 403.048 406.337 401.848 406.881 400.824C407.441 399.8 408.209 399.016 409.185 398.472C410.161 397.928 411.281 397.656 412.545 397.656C413.825 397.656 414.937 397.928 415.881 398.472C416.841 399.016 417.569 399.744 418.065 400.656C418.577 401.568 418.833 402.576 418.833 403.68ZM416.625 403.824C416.673 402.848 416.513 402.032 416.145 401.376C415.777 400.72 415.273 400.232 414.633 399.912C413.993 399.592 413.297 399.432 412.545 399.432C411.345 399.432 410.337 399.808 409.521 400.56C408.705 401.296 408.265 402.384 408.201 403.824H416.625ZM425.818 397.656C427.306 397.656 428.498 398.048 429.394 398.832C430.306 399.6 430.858 400.64 431.05 401.952H428.962C428.866 401.168 428.538 400.528 427.978 400.032C427.434 399.52 426.698 399.264 425.77 399.264C424.986 399.264 424.37 399.456 423.922 399.84C423.49 400.208 423.274 400.712 423.274 401.352C423.274 401.832 423.418 402.224 423.706 402.528C424.01 402.816 424.378 403.04 424.81 403.2C425.258 403.344 425.866 403.504 426.634 403.68C427.61 403.904 428.394 404.136 428.986 404.376C429.594 404.6 430.106 404.968 430.522 405.48C430.954 405.992 431.17 406.68 431.17 407.544C431.17 408.616 430.762 409.488 429.946 410.16C429.146 410.832 428.074 411.168 426.73 411.168C425.162 411.168 423.882 410.792 422.89 410.04C421.898 409.288 421.314 408.24 421.138 406.896H423.25C423.33 407.696 423.674 408.344 424.282 408.84C424.906 409.336 425.722 409.584 426.73 409.584C427.482 409.584 428.066 409.392 428.482 409.008C428.914 408.624 429.13 408.12 429.13 407.496C429.13 406.984 428.978 406.576 428.674 406.272C428.37 405.968 427.994 405.736 427.546 405.576C427.098 405.416 426.482 405.248 425.698 405.072C424.722 404.848 423.938 404.624 423.346 404.4C422.77 404.176 422.274 403.824 421.858 403.344C421.458 402.848 421.258 402.184 421.258 401.352C421.258 400.248 421.666 399.36 422.482 398.688C423.298 398 424.41 397.656 425.818 397.656ZM440.376 409.08V411H438.744C437.4 411 436.392 410.68 435.72 410.04C435.064 409.4 434.736 408.328 434.736 406.824V399.72H432.768V397.824H434.736V394.536H436.944V397.824H440.352V399.72H436.944V406.872C436.944 407.72 437.096 408.304 437.4 408.624C437.72 408.928 438.264 409.08 439.032 409.08H440.376ZM442.657 393.96C442.657 393.56 442.793 393.24 443.065 393C443.337 392.744 443.697 392.616 444.145 392.616C444.593 392.616 444.953 392.744 445.225 393C445.497 393.24 445.633 393.56 445.633 393.96C445.633 394.36 445.497 394.688 445.225 394.944C444.953 395.184 444.593 395.304 444.145 395.304C443.697 395.304 443.337 395.184 443.065 394.944C442.793 394.688 442.657 394.36 442.657 393.96ZM445.225 397.824V411H443.041V397.824H445.225ZM455.672 397.608C457.208 397.608 458.448 398.104 459.392 399.096C460.336 400.072 460.808 401.488 460.808 403.344V411H458.624V403.536C458.624 402.224 458.288 401.216 457.616 400.512C456.944 399.808 456.032 399.456 454.88 399.456C453.68 399.456 452.72 399.848 452 400.632C451.28 401.4 450.92 402.528 450.92 404.016V411H448.736V397.824H450.92V400.944C451.256 399.872 451.848 399.048 452.696 398.472C453.56 397.896 454.552 397.608 455.672 397.608ZM469.558 397.656C470.838 397.656 471.918 397.976 472.798 398.616C473.694 399.256 474.318 400.112 474.67 401.184V397.824H476.854V411.216C476.854 412.432 476.598 413.512 476.086 414.456C475.574 415.4 474.854 416.136 473.926 416.664C472.998 417.192 471.918 417.456 470.686 417.456C468.91 417.456 467.462 417.024 466.342 416.16C465.222 415.312 464.51 414.16 464.206 412.704H466.366C466.622 413.584 467.102 414.272 467.806 414.768C468.526 415.28 469.446 415.536 470.566 415.536C471.75 415.536 472.726 415.152 473.494 414.384C474.278 413.632 474.67 412.576 474.67 411.216V407.64C474.318 408.712 473.694 409.568 472.798 410.208C471.918 410.848 470.838 411.168 469.558 411.168C468.39 411.168 467.35 410.896 466.438 410.352C465.526 409.808 464.806 409.032 464.278 408.024C463.766 407 463.51 405.8 463.51 404.424C463.51 403.048 463.766 401.848 464.278 400.824C464.806 399.8 465.526 399.016 466.438 398.472C467.35 397.928 468.39 397.656 469.558 397.656ZM470.182 399.6C468.838 399.6 467.758 400.032 466.942 400.896C466.142 401.744 465.742 402.92 465.742 404.424C465.742 405.928 466.142 407.112 466.942 407.976C467.758 408.824 468.838 409.248 470.182 409.248C471.046 409.248 471.814 409.048 472.486 408.648C473.174 408.248 473.71 407.688 474.094 406.968C474.478 406.232 474.67 405.384 474.67 404.424C474.67 403.464 474.478 402.616 474.094 401.88C473.71 401.144 473.174 400.584 472.486 400.2C471.814 399.8 471.046 399.6 470.182 399.6Z" fill="white"/>
<path d="M415.18 258.9V267.36C415.18 268.747 415.487 269.773 416.1 270.44C416.713 271.093 417.56 271.42 418.64 271.42C419.707 271.42 420.54 271.087 421.14 270.42C421.74 269.753 422.04 268.733 422.04 267.36V258.9H423.86V267.36C423.86 269.28 423.38 270.727 422.42 271.7C421.473 272.66 420.2 273.14 418.6 273.14C417.013 273.14 415.74 272.66 414.78 271.7C413.833 270.727 413.36 269.28 413.36 267.36V258.9H415.18ZM432.743 261.88C433.716 261.88 434.583 262.107 435.343 262.56C436.103 263.013 436.696 263.667 437.123 264.52C437.563 265.373 437.783 266.373 437.783 267.52C437.783 268.667 437.563 269.667 437.123 270.52C436.696 271.36 436.103 272.007 435.343 272.46C434.583 272.913 433.716 273.14 432.743 273.14C431.676 273.14 430.769 272.873 430.023 272.34C429.289 271.793 428.783 271.08 428.503 270.2V278.2H426.683V262.02H428.503V264.82C428.783 263.94 429.289 263.233 430.023 262.7C430.769 262.153 431.676 261.88 432.743 261.88ZM432.223 263.5C431.516 263.5 430.876 263.667 430.303 264C429.729 264.32 429.283 264.787 428.963 265.4C428.643 266.013 428.483 266.72 428.483 267.52C428.483 268.32 428.643 269.027 428.963 269.64C429.283 270.24 429.729 270.707 430.303 271.04C430.876 271.373 431.516 271.54 432.223 271.54C433.356 271.54 434.256 271.187 434.923 270.48C435.603 269.76 435.943 268.773 435.943 267.52C435.943 266.267 435.603 265.287 434.923 264.58C434.256 263.86 433.356 263.5 432.223 263.5ZM444.659 261.88C445.726 261.88 446.626 262.147 447.359 262.68C448.106 263.213 448.626 263.927 448.919 264.82V258.2H450.739V273H448.919V270.2C448.626 271.093 448.106 271.807 447.359 272.34C446.626 272.873 445.726 273.14 444.659 273.14C443.686 273.14 442.819 272.913 442.059 272.46C441.299 272.007 440.699 271.36 440.259 270.52C439.833 269.667 439.619 268.667 439.619 267.52C439.619 266.373 439.833 265.373 440.259 264.52C440.699 263.667 441.299 263.013 442.059 262.56C442.819 262.107 443.686 261.88 444.659 261.88ZM445.179 263.5C444.059 263.5 443.159 263.86 442.479 264.58C441.813 265.287 441.479 266.267 441.479 267.52C441.479 268.773 441.813 269.76 442.479 270.48C443.159 271.187 444.059 271.54 445.179 271.54C445.899 271.54 446.539 271.373 447.099 271.04C447.673 270.707 448.119 270.24 448.439 269.64C448.759 269.027 448.919 268.32 448.919 267.52C448.919 266.72 448.759 266.013 448.439 265.4C448.119 264.787 447.673 264.32 447.099 264C446.539 263.667 445.899 263.5 445.179 263.5ZM458.136 261.88C459.202 261.88 460.102 262.147 460.836 262.68C461.582 263.213 462.102 263.927 462.396 264.82V262.02H464.216V273H462.396V270.2C462.102 271.093 461.582 271.807 460.836 272.34C460.102 272.873 459.202 273.14 458.136 273.14C457.162 273.14 456.296 272.913 455.536 272.46C454.776 272.007 454.176 271.36 453.736 270.52C453.309 269.667 453.096 268.667 453.096 267.52C453.096 266.373 453.309 265.373 453.736 264.52C454.176 263.667 454.776 263.013 455.536 262.56C456.296 262.107 457.162 261.88 458.136 261.88ZM458.656 263.5C457.536 263.5 456.636 263.86 455.956 264.58C455.289 265.287 454.956 266.267 454.956 267.52C454.956 268.773 455.289 269.76 455.956 270.48C456.636 271.187 457.536 271.54 458.656 271.54C459.376 271.54 460.016 271.373 460.576 271.04C461.149 270.707 461.596 270.24 461.916 269.64C462.236 269.027 462.396 268.32 462.396 267.52C462.396 266.72 462.236 266.013 461.916 265.4C461.596 264.787 461.149 264.32 460.576 264C460.016 263.667 459.376 263.5 458.656 263.5ZM472.352 271.4V273H470.992C469.872 273 469.032 272.733 468.472 272.2C467.926 271.667 467.652 270.773 467.652 269.52V263.6H466.012V262.02H467.652V259.28H469.492V262.02H472.332V263.6H469.492V269.56C469.492 270.267 469.619 270.753 469.872 271.02C470.139 271.273 470.592 271.4 471.232 271.4H472.352ZM484.673 266.9C484.673 267.287 484.647 267.62 484.593 267.9H475.813C475.853 269.153 476.207 270.093 476.873 270.72C477.553 271.347 478.38 271.66 479.353 271.66C480.233 271.66 480.967 271.44 481.553 271C482.153 270.547 482.52 269.947 482.653 269.2H484.593C484.46 269.96 484.16 270.64 483.693 271.24C483.24 271.84 482.647 272.307 481.913 272.64C481.18 272.973 480.353 273.14 479.433 273.14C478.38 273.14 477.447 272.913 476.633 272.46C475.82 272.007 475.18 271.36 474.713 270.52C474.26 269.667 474.033 268.667 474.033 267.52C474.033 266.373 474.26 265.373 474.713 264.52C475.18 263.667 475.82 263.013 476.633 262.56C477.447 262.107 478.38 261.88 479.433 261.88C480.5 261.88 481.427 262.107 482.213 262.56C483.013 263.013 483.62 263.62 484.033 264.38C484.46 265.14 484.673 265.98 484.673 266.9ZM482.833 267.02C482.873 266.207 482.74 265.527 482.433 264.98C482.127 264.433 481.707 264.027 481.173 263.76C480.64 263.493 480.06 263.36 479.433 263.36C478.433 263.36 477.593 263.673 476.913 264.3C476.233 264.913 475.867 265.82 475.813 267.02H482.833ZM490.494 261.88C491.734 261.88 492.727 262.207 493.474 262.86C494.234 263.5 494.694 264.367 494.854 265.46H493.114C493.034 264.807 492.76 264.273 492.294 263.86C491.84 263.433 491.227 263.22 490.454 263.22C489.8 263.22 489.287 263.38 488.914 263.7C488.554 264.007 488.374 264.427 488.374 264.96C488.374 265.36 488.494 265.687 488.734 265.94C488.987 266.18 489.294 266.367 489.654 266.5C490.027 266.62 490.534 266.753 491.174 266.9C491.987 267.087 492.64 267.28 493.134 267.48C493.64 267.667 494.067 267.973 494.414 268.4C494.774 268.827 494.954 269.4 494.954 270.12C494.954 271.013 494.614 271.74 493.934 272.3C493.267 272.86 492.374 273.14 491.254 273.14C489.947 273.14 488.88 272.827 488.054 272.2C487.227 271.573 486.74 270.7 486.594 269.58H488.354C488.42 270.247 488.707 270.787 489.214 271.2C489.734 271.613 490.414 271.82 491.254 271.82C491.88 271.82 492.367 271.66 492.714 271.34C493.074 271.02 493.254 270.6 493.254 270.08C493.254 269.653 493.127 269.313 492.874 269.06C492.62 268.807 492.307 268.613 491.934 268.48C491.56 268.347 491.047 268.207 490.394 268.06C489.58 267.873 488.927 267.687 488.434 267.5C487.954 267.313 487.54 267.02 487.194 266.62C486.86 266.207 486.694 265.653 486.694 264.96C486.694 264.04 487.034 263.3 487.714 262.74C488.394 262.167 489.32 261.88 490.494 261.88Z" fill="white"/>
<path d="M581.879 385.24C582.919 385.464 583.759 385.96 584.399 386.728C585.055 387.496 585.383 388.4 585.383 389.44C585.383 390.816 584.911 391.92 583.967 392.752C583.039 393.584 581.687 394 579.911 394H573.623V377.08H579.815C581.511 377.08 582.799 377.456 583.679 378.208C584.559 378.96 584.999 379.992 584.999 381.304C584.999 382.392 584.703 383.272 584.111 383.944C583.535 384.616 582.791 385.048 581.879 385.24ZM575.807 384.496H579.455C580.527 384.496 581.343 384.248 581.903 383.752C582.479 383.256 582.767 382.56 582.767 381.664C582.767 380.8 582.487 380.12 581.927 379.624C581.367 379.128 580.511 378.88 579.359 378.88H575.807V384.496ZM579.503 392.176C580.655 392.176 581.543 391.912 582.167 391.384C582.807 390.856 583.127 390.112 583.127 389.152C583.127 388.208 582.799 387.472 582.143 386.944C581.503 386.4 580.607 386.128 579.455 386.128H575.807V392.176H579.503ZM599.819 380.824V394H597.635V390.904C597.299 391.976 596.699 392.8 595.835 393.376C594.987 393.936 593.995 394.216 592.859 394.216C591.339 394.216 590.107 393.728 589.163 392.752C588.219 391.76 587.747 390.344 587.747 388.504V380.824H589.931V388.288C589.931 389.6 590.267 390.616 590.939 391.336C591.611 392.04 592.523 392.392 593.675 392.392C594.875 392.392 595.835 392.008 596.555 391.24C597.275 390.456 597.635 389.32 597.635 387.832V380.824H599.819ZM602.934 376.96C602.934 376.56 603.07 376.24 603.342 376C603.614 375.744 603.974 375.616 604.422 375.616C604.87 375.616 605.23 375.744 605.502 376C605.774 376.24 605.91 376.56 605.91 376.96C605.91 377.36 605.774 377.688 605.502 377.944C605.23 378.184 604.87 378.304 604.422 378.304C603.974 378.304 603.614 378.184 603.342 377.944C603.07 377.688 602.934 377.36 602.934 376.96ZM605.502 380.824V394H603.318V380.824H605.502ZM611.198 376.24V394H609.014V376.24H611.198ZM620.109 380.656C621.389 380.656 622.469 380.976 623.349 381.616C624.245 382.256 624.869 383.112 625.221 384.184V376.24H627.405V394H625.221V390.64C624.869 391.712 624.245 392.568 623.349 393.208C622.469 393.848 621.389 394.168 620.109 394.168C618.941 394.168 617.901 393.896 616.989 393.352C616.077 392.808 615.357 392.032 614.829 391.024C614.317 390 614.061 388.8 614.061 387.424C614.061 386.048 614.317 384.848 614.829 383.824C615.357 382.8 616.077 382.016 616.989 381.472C617.901 380.928 618.941 380.656 620.109 380.656ZM620.733 382.6C619.389 382.6 618.309 383.032 617.493 383.896C616.693 384.744 616.293 385.92 616.293 387.424C616.293 388.928 616.693 390.112 617.493 390.976C618.309 391.824 619.389 392.248 620.733 392.248C621.597 392.248 622.365 392.048 623.037 391.648C623.725 391.248 624.261 390.688 624.645 389.968C625.029 389.232 625.221 388.384 625.221 387.424C625.221 386.464 625.029 385.616 624.645 384.88C624.261 384.144 623.725 383.584 623.037 383.2C622.365 382.8 621.597 382.6 620.733 382.6Z" fill="white"/>
<path d="M648.18 173.9V182.36C648.18 183.747 648.487 184.773 649.1 185.44C649.713 186.093 650.56 186.42 651.64 186.42C652.707 186.42 653.54 186.087 654.14 185.42C654.74 184.753 655.04 183.733 655.04 182.36V173.9H656.86V182.36C656.86 184.28 656.38 185.727 655.42 186.7C654.473 187.66 653.2 188.14 651.6 188.14C650.013 188.14 648.74 187.66 647.78 186.7C646.833 185.727 646.36 184.28 646.36 182.36V173.9H648.18ZM663.123 176.88C664.363 176.88 665.356 177.207 666.103 177.86C666.863 178.5 667.323 179.367 667.483 180.46H665.743C665.663 179.807 665.389 179.273 664.923 178.86C664.469 178.433 663.856 178.22 663.083 178.22C662.429 178.22 661.916 178.38 661.543 178.7C661.183 179.007 661.003 179.427 661.003 179.96C661.003 180.36 661.123 180.687 661.363 180.94C661.616 181.18 661.923 181.367 662.283 181.5C662.656 181.62 663.163 181.753 663.803 181.9C664.616 182.087 665.269 182.28 665.763 182.48C666.269 182.667 666.696 182.973 667.043 183.4C667.403 183.827 667.583 184.4 667.583 185.12C667.583 186.013 667.243 186.74 666.563 187.3C665.896 187.86 665.003 188.14 663.883 188.14C662.576 188.14 661.509 187.827 660.683 187.2C659.856 186.573 659.369 185.7 659.223 184.58H660.983C661.049 185.247 661.336 185.787 661.843 186.2C662.363 186.613 663.043 186.82 663.883 186.82C664.509 186.82 664.996 186.66 665.343 186.34C665.703 186.02 665.883 185.6 665.883 185.08C665.883 184.653 665.756 184.313 665.503 184.06C665.249 183.807 664.936 183.613 664.563 183.48C664.189 183.347 663.676 183.207 663.023 183.06C662.209 182.873 661.556 182.687 661.063 182.5C660.583 182.313 660.169 182.02 659.823 181.62C659.489 181.207 659.323 180.653 659.323 179.96C659.323 179.04 659.663 178.3 660.343 177.74C661.023 177.167 661.949 176.88 663.123 176.88ZM680.115 181.9C680.115 182.287 680.088 182.62 680.035 182.9H671.255C671.295 184.153 671.648 185.093 672.315 185.72C672.995 186.347 673.821 186.66 674.795 186.66C675.675 186.66 676.408 186.44 676.995 186C677.595 185.547 677.961 184.947 678.095 184.2H680.035C679.901 184.96 679.601 185.64 679.135 186.24C678.681 186.84 678.088 187.307 677.355 187.64C676.621 187.973 675.795 188.14 674.875 188.14C673.821 188.14 672.888 187.913 672.075 187.46C671.261 187.007 670.621 186.36 670.155 185.52C669.701 184.667 669.475 183.667 669.475 182.52C669.475 181.373 669.701 180.373 670.155 179.52C670.621 178.667 671.261 178.013 672.075 177.56C672.888 177.107 673.821 176.88 674.875 176.88C675.941 176.88 676.868 177.107 677.655 177.56C678.455 178.013 679.061 178.62 679.475 179.38C679.901 180.14 680.115 180.98 680.115 181.9ZM678.275 182.02C678.315 181.207 678.181 180.527 677.875 179.98C677.568 179.433 677.148 179.027 676.615 178.76C676.081 178.493 675.501 178.36 674.875 178.36C673.875 178.36 673.035 178.673 672.355 179.3C671.675 179.913 671.308 180.82 671.255 182.02H678.275ZM684.315 179.24C684.675 178.48 685.202 177.893 685.895 177.48C686.588 177.053 687.415 176.84 688.375 176.84V178.82H687.815C686.788 178.82 685.948 179.087 685.295 179.62C684.642 180.14 684.315 181.007 684.315 182.22V188H682.495V177.02H684.315V179.24ZM696.932 173.9V188H695.112V173.9H696.932ZM705.638 176.84C706.918 176.84 707.952 177.253 708.738 178.08C709.525 178.893 709.918 180.073 709.918 181.62V188H708.098V181.78C708.098 180.687 707.818 179.847 707.258 179.26C706.698 178.673 705.938 178.38 704.978 178.38C703.978 178.38 703.178 178.707 702.578 179.36C701.978 180 701.678 180.94 701.678 182.18V188H699.858V177.02H701.678V179.62C701.958 178.727 702.452 178.04 703.158 177.56C703.878 177.08 704.705 176.84 705.638 176.84ZM717.95 186.4V188H716.59C715.47 188 714.63 187.733 714.07 187.2C713.523 186.667 713.25 185.773 713.25 184.52V178.6H711.61V177.02H713.25V174.28H715.09V177.02H717.93V178.6H715.09V184.56C715.09 185.267 715.217 185.753 715.47 186.02C715.737 186.273 716.19 186.4 716.83 186.4H717.95ZM730.271 181.9C730.271 182.287 730.244 182.62 730.191 182.9H721.411C721.451 184.153 721.804 185.093 722.471 185.72C723.151 186.347 723.978 186.66 724.951 186.66C725.831 186.66 726.564 186.44 727.151 186C727.751 185.547 728.118 184.947 728.251 184.2H730.191C730.058 184.96 729.758 185.64 729.291 186.24C728.838 186.84 728.244 187.307 727.511 187.64C726.778 187.973 725.951 188.14 725.031 188.14C723.978 188.14 723.044 187.913 722.231 187.46C721.418 187.007 720.778 186.36 720.311 185.52C719.858 184.667 719.631 183.667 719.631 182.52C719.631 181.373 719.858 180.373 720.311 179.52C720.778 178.667 721.418 178.013 722.231 177.56C723.044 177.107 723.978 176.88 725.031 176.88C726.098 176.88 727.024 177.107 727.811 177.56C728.611 178.013 729.218 178.62 729.631 179.38C730.058 180.14 730.271 180.98 730.271 181.9ZM728.431 182.02C728.471 181.207 728.338 180.527 728.031 179.98C727.724 179.433 727.304 179.027 726.771 178.76C726.238 178.493 725.658 178.36 725.031 178.36C724.031 178.36 723.191 178.673 722.511 179.3C721.831 179.913 721.464 180.82 721.411 182.02H728.431ZM734.471 179.24C734.831 178.48 735.358 177.893 736.051 177.48C736.745 177.053 737.571 176.84 738.531 176.84V178.82H737.971C736.945 178.82 736.105 179.087 735.451 179.62C734.798 180.14 734.471 181.007 734.471 182.22V188H732.651V177.02H734.471V179.24ZM744.587 186.06L747.987 177.02H749.947L745.647 188H743.487L739.187 177.02H741.147L744.587 186.06ZM751.413 173.8C751.413 173.467 751.527 173.2 751.753 173C751.98 172.787 752.28 172.68 752.653 172.68C753.027 172.68 753.327 172.787 753.553 173C753.78 173.2 753.893 173.467 753.893 173.8C753.893 174.133 753.78 174.407 753.553 174.62C753.327 174.82 753.027 174.92 752.653 174.92C752.28 174.92 751.98 174.82 751.753 174.62C751.527 174.407 751.413 174.133 751.413 173.8ZM753.553 177.02V188H751.733V177.02H753.553ZM766.58 181.9C766.58 182.287 766.553 182.62 766.5 182.9H757.72C757.76 184.153 758.113 185.093 758.78 185.72C759.46 186.347 760.286 186.66 761.26 186.66C762.14 186.66 762.873 186.44 763.46 186C764.06 185.547 764.426 184.947 764.56 184.2H766.5C766.366 184.96 766.066 185.64 765.6 186.24C765.146 186.84 764.553 187.307 763.82 187.64C763.086 187.973 762.26 188.14 761.34 188.14C760.286 188.14 759.353 187.913 758.54 187.46C757.726 187.007 757.086 186.36 756.62 185.52C756.166 184.667 755.94 183.667 755.94 182.52C755.94 181.373 756.166 180.373 756.62 179.52C757.086 178.667 757.726 178.013 758.54 177.56C759.353 177.107 760.286 176.88 761.34 176.88C762.406 176.88 763.333 177.107 764.12 177.56C764.92 178.013 765.526 178.62 765.94 179.38C766.366 180.14 766.58 180.98 766.58 181.9ZM764.74 182.02C764.78 181.207 764.646 180.527 764.34 179.98C764.033 179.433 763.613 179.027 763.08 178.76C762.546 178.493 761.966 178.36 761.34 178.36C760.34 178.36 759.5 178.673 758.82 179.3C758.14 179.913 757.773 180.82 757.72 182.02H764.74ZM784.04 177.02L780.88 188H778.92L775.9 179.06L772.86 188H770.88L767.76 177.02H769.6L771.94 186.26L774.98 177.02H776.88L779.94 186.24L782.3 177.02H784.04ZM789.177 176.88C790.417 176.88 791.411 177.207 792.157 177.86C792.917 178.5 793.377 179.367 793.537 180.46H791.797C791.717 179.807 791.444 179.273 790.977 178.86C790.524 178.433 789.911 178.22 789.137 178.22C788.484 178.22 787.971 178.38 787.597 178.7C787.237 179.007 787.057 179.427 787.057 179.96C787.057 180.36 787.177 180.687 787.417 180.94C787.671 181.18 787.977 181.367 788.337 181.5C788.711 181.62 789.217 181.753 789.857 181.9C790.671 182.087 791.324 182.28 791.817 182.48C792.324 182.667 792.751 182.973 793.097 183.4C793.457 183.827 793.637 184.4 793.637 185.12C793.637 186.013 793.297 186.74 792.617 187.3C791.951 187.86 791.057 188.14 789.937 188.14C788.631 188.14 787.564 187.827 786.737 187.2C785.911 186.573 785.424 185.7 785.277 184.58H787.037C787.104 185.247 787.391 185.787 787.897 186.2C788.417 186.613 789.097 186.82 789.937 186.82C790.564 186.82 791.051 186.66 791.397 186.34C791.757 186.02 791.937 185.6 791.937 185.08C791.937 184.653 791.811 184.313 791.557 184.06C791.304 183.807 790.991 183.613 790.617 183.48C790.244 183.347 789.731 183.207 789.077 183.06C788.264 182.873 787.611 182.687 787.117 182.5C786.637 182.313 786.224 182.02 785.877 181.62C785.544 181.207 785.377 180.653 785.377 179.96C785.377 179.04 785.717 178.3 786.397 177.74C787.077 177.167 788.004 176.88 789.177 176.88Z" fill="white"/>
<path d="M151.34 180.7C152.207 180.887 152.907 181.3 153.44 181.94C153.987 182.58 154.26 183.333 154.26 184.2C154.26 185.347 153.867 186.267 153.08 186.96C152.307 187.653 151.18 188 149.7 188H144.46V173.9H149.62C151.033 173.9 152.107 174.213 152.84 174.84C153.573 175.467 153.94 176.327 153.94 177.42C153.94 178.327 153.693 179.06 153.2 179.62C152.72 180.18 152.1 180.54 151.34 180.7ZM146.28 180.08H149.32C150.213 180.08 150.893 179.873 151.36 179.46C151.84 179.047 152.08 178.467 152.08 177.72C152.08 177 151.847 176.433 151.38 176.02C150.913 175.607 150.2 175.4 149.24 175.4H146.28V180.08ZM149.36 186.48C150.32 186.48 151.06 186.26 151.58 185.82C152.113 185.38 152.38 184.76 152.38 183.96C152.38 183.173 152.107 182.56 151.56 182.12C151.027 181.667 150.28 181.44 149.32 181.44H146.28V186.48H149.36ZM166.63 181.9C166.63 182.287 166.604 182.62 166.55 182.9H157.77C157.81 184.153 158.164 185.093 158.83 185.72C159.51 186.347 160.337 186.66 161.31 186.66C162.19 186.66 162.924 186.44 163.51 186C164.11 185.547 164.477 184.947 164.61 184.2H166.55C166.417 184.96 166.117 185.64 165.65 186.24C165.197 186.84 164.604 187.307 163.87 187.64C163.137 187.973 162.31 188.14 161.39 188.14C160.337 188.14 159.404 187.913 158.59 187.46C157.777 187.007 157.137 186.36 156.67 185.52C156.217 184.667 155.99 183.667 155.99 182.52C155.99 181.373 156.217 180.373 156.67 179.52C157.137 178.667 157.777 178.013 158.59 177.56C159.404 177.107 160.337 176.88 161.39 176.88C162.457 176.88 163.384 177.107 164.17 177.56C164.97 178.013 165.577 178.62 165.99 179.38C166.417 180.14 166.63 180.98 166.63 181.9ZM164.79 182.02C164.83 181.207 164.697 180.527 164.39 179.98C164.084 179.433 163.664 179.027 163.13 178.76C162.597 178.493 162.017 178.36 161.39 178.36C160.39 178.36 159.55 178.673 158.87 179.3C158.19 179.913 157.824 180.82 157.77 182.02H164.79ZM174.791 176.84C176.071 176.84 177.104 177.253 177.891 178.08C178.677 178.893 179.071 180.073 179.071 181.62V188H177.251V181.78C177.251 180.687 176.971 179.847 176.411 179.26C175.851 178.673 175.091 178.38 174.131 178.38C173.131 178.38 172.331 178.707 171.731 179.36C171.131 180 170.831 180.94 170.831 182.18V188H169.011V177.02H170.831V179.62C171.111 178.727 171.604 178.04 172.311 177.56C173.031 177.08 173.857 176.84 174.791 176.84ZM186.722 176.88C188.122 176.88 189.282 177.253 190.202 178C191.122 178.747 191.689 179.747 191.902 181H189.982C189.849 180.213 189.482 179.6 188.882 179.16C188.296 178.707 187.562 178.48 186.682 178.48C186.042 178.48 185.456 178.627 184.922 178.92C184.402 179.213 183.982 179.667 183.662 180.28C183.342 180.88 183.182 181.627 183.182 182.52C183.182 183.413 183.342 184.167 183.662 184.78C183.982 185.38 184.402 185.827 184.922 186.12C185.456 186.413 186.042 186.56 186.682 186.56C187.562 186.56 188.296 186.333 188.882 185.88C189.482 185.427 189.849 184.807 189.982 184.02H191.902C191.689 185.287 191.122 186.293 190.202 187.04C189.282 187.773 188.122 188.14 186.722 188.14C185.669 188.14 184.736 187.913 183.922 187.46C183.109 187.007 182.469 186.36 182.002 185.52C181.549 184.667 181.322 183.667 181.322 182.52C181.322 181.373 181.549 180.373 182.002 179.52C182.469 178.667 183.109 178.013 183.922 177.56C184.736 177.107 185.669 176.88 186.722 176.88ZM200.064 176.84C201.344 176.84 202.378 177.253 203.164 178.08C203.951 178.893 204.344 180.073 204.344 181.62V188H202.524V181.78C202.524 180.687 202.244 179.847 201.684 179.26C201.124 178.673 200.364 178.38 199.404 178.38C198.404 178.38 197.604 178.707 197.004 179.36C196.404 180 196.104 180.94 196.104 182.18V188H194.284V173.2H196.104V179.62C196.384 178.727 196.878 178.04 197.584 177.56C198.304 177.08 199.131 176.84 200.064 176.84ZM220.636 176.84C221.916 176.84 222.942 177.253 223.716 178.08C224.502 178.893 224.896 180.073 224.896 181.62V188H223.076V181.78C223.076 180.7 222.809 179.873 222.276 179.3C221.756 178.727 221.036 178.44 220.116 178.44C219.156 178.44 218.382 178.76 217.796 179.4C217.222 180.027 216.936 180.953 216.936 182.18V188H215.116V181.78C215.116 180.7 214.849 179.873 214.316 179.3C213.782 178.727 213.062 178.44 212.156 178.44C211.182 178.44 210.402 178.76 209.816 179.4C209.242 180.027 208.956 180.953 208.956 182.18V188H207.136V177.02H208.956V179.52C209.222 178.653 209.696 177.993 210.376 177.54C211.069 177.073 211.862 176.84 212.756 176.84C213.689 176.84 214.496 177.08 215.176 177.56C215.869 178.027 216.362 178.72 216.656 179.64C216.962 178.747 217.476 178.06 218.196 177.58C218.916 177.087 219.729 176.84 220.636 176.84ZM232.222 176.88C233.288 176.88 234.188 177.147 234.922 177.68C235.668 178.213 236.188 178.927 236.482 179.82V177.02H238.302V188H236.482V185.2C236.188 186.093 235.668 186.807 234.922 187.34C234.188 187.873 233.288 188.14 232.222 188.14C231.248 188.14 230.382 187.913 229.622 187.46C228.862 187.007 228.262 186.36 227.822 185.52C227.395 184.667 227.182 183.667 227.182 182.52C227.182 181.373 227.395 180.373 227.822 179.52C228.262 178.667 228.862 178.013 229.622 177.56C230.382 177.107 231.248 176.88 232.222 176.88ZM232.742 178.5C231.622 178.5 230.722 178.86 230.042 179.58C229.375 180.287 229.042 181.267 229.042 182.52C229.042 183.773 229.375 184.76 230.042 185.48C230.722 186.187 231.622 186.54 232.742 186.54C233.462 186.54 234.102 186.373 234.662 186.04C235.235 185.707 235.682 185.24 236.002 184.64C236.322 184.027 236.482 183.32 236.482 182.52C236.482 181.72 236.322 181.013 236.002 180.4C235.682 179.787 235.235 179.32 234.662 179C234.102 178.667 233.462 178.5 232.742 178.5ZM243.018 179.24C243.378 178.48 243.905 177.893 244.598 177.48C245.292 177.053 246.118 176.84 247.078 176.84V178.82H246.518C245.492 178.82 244.652 179.087 243.998 179.62C243.345 180.14 243.018 181.007 243.018 182.22V188H241.198V177.02H243.018V179.24ZM254.894 188L250.694 183.06V188H248.874V173.2H250.694V181.8L254.834 177.02H257.054L252.134 182.48L257.174 188H254.894Z" fill="white"/>
<path d="M9.408 218.336L16.248 227H11.28L5.52 219.392V227H1.416V210.032H5.52V217.496L11.328 210.032H16.248L9.408 218.336ZM17.6023 209.84C17.6023 209.216 17.8263 208.704 18.2743 208.304C18.7223 207.888 19.3143 207.68 20.0503 207.68C20.7863 207.68 21.3783 207.888 21.8263 208.304C22.2743 208.704 22.4983 209.216 22.4983 209.84C22.4983 210.448 22.2743 210.96 21.8263 211.376C21.3783 211.776 20.7863 211.976 20.0503 211.976C19.3143 211.976 18.7223 211.776 18.2743 211.376C17.8263 210.96 17.6023 210.448 17.6023 209.84ZM22.0903 213.608V227H17.9863V213.608H22.0903ZM30.9718 213.44C32.6998 213.44 34.1478 213.92 35.3158 214.88C36.4838 215.824 37.2198 217.128 37.5238 218.792H33.1798C33.0518 218.216 32.7878 217.768 32.3878 217.448C31.9878 217.128 31.4838 216.968 30.8758 216.968C30.1558 216.968 29.5638 217.256 29.0998 217.832C28.6358 218.392 28.4038 219.216 28.4038 220.304C28.4038 221.392 28.6358 222.224 29.0998 222.8C29.5638 223.36 30.1558 223.64 30.8758 223.64C31.4838 223.64 31.9878 223.48 32.3878 223.16C32.7878 222.84 33.0518 222.392 33.1798 221.816H37.5238C37.2198 223.48 36.4838 224.792 35.3158 225.752C34.1478 226.696 32.6998 227.168 30.9718 227.168C29.6598 227.168 28.4918 226.896 27.4678 226.352C26.4598 225.792 25.6678 224.992 25.0918 223.952C24.5158 222.912 24.2278 221.696 24.2278 220.304C24.2278 218.896 24.5078 217.68 25.0678 216.656C25.6438 215.616 26.4438 214.824 27.4678 214.28C28.4918 213.72 29.6598 213.44 30.9718 213.44ZM47.778 227L43.77 221.312V227H39.666V209.24H43.77V218.984L47.778 213.608H52.602L47.202 220.304L52.722 227H47.778ZM65.2894 213.44C66.6174 213.44 67.8014 213.72 68.8414 214.28C69.8974 214.824 70.7214 215.616 71.3134 216.656C71.9214 217.696 72.2254 218.912 72.2254 220.304C72.2254 221.696 71.9214 222.912 71.3134 223.952C70.7214 224.992 69.8974 225.792 68.8414 226.352C67.8014 226.896 66.6174 227.168 65.2894 227.168C63.9614 227.168 62.7694 226.896 61.7134 226.352C60.6574 225.792 59.8254 224.992 59.2174 223.952C58.6254 222.912 58.3294 221.696 58.3294 220.304C58.3294 218.912 58.6254 217.696 59.2174 216.656C59.8254 215.616 60.6574 214.824 61.7134 214.28C62.7694 213.72 63.9614 213.44 65.2894 213.44ZM65.2894 216.992C64.5054 216.992 63.8414 217.28 63.2974 217.856C62.7694 218.416 62.5054 219.232 62.5054 220.304C62.5054 221.376 62.7694 222.192 63.2974 222.752C63.8414 223.312 64.5054 223.592 65.2894 223.592C66.0734 223.592 66.7294 223.312 67.2574 222.752C67.7854 222.192 68.0494 221.376 68.0494 220.304C68.0494 219.232 67.7854 218.416 67.2574 217.856C66.7294 217.28 66.0734 216.992 65.2894 216.992ZM80.9295 211.784C80.2575 211.784 79.7695 211.928 79.4655 212.216C79.1615 212.504 78.9935 212.968 78.9615 213.608H81.3855V217.064H78.9615V227H74.8575V217.064H73.2495V213.608H74.8575V213.464C74.8575 211.8 75.3375 210.52 76.2975 209.624C77.2735 208.712 78.6815 208.256 80.5215 208.256C80.9055 208.256 81.1935 208.264 81.3855 208.28V211.808L80.9295 211.784ZM89.7654 211.784C89.0934 211.784 88.6054 211.928 88.3014 212.216C87.9974 212.504 87.8294 212.968 87.7974 213.608H90.2214V217.064H87.7974V227H83.6934V217.064H82.0854V213.608H83.6934V213.464C83.6934 211.8 84.1734 210.52 85.1334 209.624C86.1094 208.712 87.5174 208.256 89.3574 208.256C89.7414 208.256 90.0294 208.264 90.2214 208.28V211.808L89.7654 211.784Z" fill="white"/>
<path d="M0 241H132" stroke="white" stroke-width="3"/>
<path d="M863 260L856 267V253L863 260Z" fill="white"/>
<circle cx="188" cy="211" r="88" stroke="white" stroke-width="2"/>
<circle cx="435" cy="284" r="88" stroke="white" stroke-width="2"/>
<circle cx="682" cy="134" r="88" stroke="white" stroke-width="2"/>
<circle cx="597.5" cy="244.5" r="114.5" fill="white" fill-opacity="0.48" stroke="white" stroke-width="2"/>
<path d="M339.6 103.7C339.6 100.833 340.017 98.3 340.85 96.1C341.717 93.9 343.117 91.8333 345.05 89.9C346.983 87.9333 349.65 85.9 353.05 83.8C354.05 83.1667 354.75 82.6333 355.15 82.2C355.583 81.7333 355.8 81.1833 355.8 80.55C355.8 79.1833 354.817 78.5 352.85 78.5C351.383 78.5 349.7 78.8833 347.8 79.65C345.9 80.4167 344.183 81.3833 342.65 82.55L339.7 71.9C341.833 70.8333 344.283 69.9333 347.05 69.2C349.817 68.4333 352.6 68.05 355.4 68.05C360 68.05 363.567 69.0667 366.1 71.1C368.633 73.1333 369.9 76.0167 369.9 79.75C369.9 81.75 369.45 83.5167 368.55 85.05C367.683 86.55 366.617 87.8167 365.35 88.85C364.117 89.8833 362.5 91.0667 360.5 92.4C358.267 93.8667 356.617 95.1333 355.55 96.2C354.517 97.2333 354 98.4333 354 99.8H360.05V96.95H370.3V108H339.6V103.7Z" fill="white"/>
<path d="M416.3 326.15C417.333 326.417 418.317 326.967 419.25 327.8C420.217 328.6 421 329.617 421.6 330.85C422.233 332.083 422.55 333.45 422.55 334.95C422.55 338.617 421.233 341.5 418.6 343.6C416 345.667 412.133 346.7 407 346.7C404.567 346.7 402.133 346.433 399.7 345.9C397.267 345.333 395.1 344.65 393.2 343.85V333.2C395.267 334.1 397.4 334.833 399.6 335.4C401.833 335.967 403.95 336.25 405.95 336.25C407.35 336.25 408.367 336.033 409 335.6C409.667 335.167 410 334.45 410 333.45C410 331.517 408.833 330.55 406.5 330.55H402.9V322.35H405.7C407.9 322.35 409 321.417 409 319.55C409 317.75 407.9 316.85 405.7 316.85C404.1 316.85 402.433 317.233 400.7 318C398.967 318.733 397.283 319.7 395.65 320.9L392.7 310.25C394.733 309.183 397.05 308.283 399.65 307.55C402.25 306.783 404.867 306.4 407.5 306.4C412.1 306.4 415.633 307.367 418.1 309.3C420.567 311.233 421.8 313.967 421.8 317.5C421.8 319.7 421.283 321.517 420.25 322.95C419.217 324.35 417.9 325.417 416.3 326.15Z" fill="white"/>
<path d="M617.15 327V320.75H600.9V312.55L618.15 288.1H630.35V313.15H633.8V320.75H630.35V327H617.15ZM610.15 313.15H617.15V303.3L610.15 313.15Z" fill="white"/>
<path d="M676.35 82.3C680.083 82.3 682.933 83.4 684.9 85.6C686.867 87.8 687.85 90.7833 687.85 94.55C687.85 97.3833 687.2 99.8667 685.9 102C684.633 104.133 682.733 105.783 680.2 106.95C677.667 108.117 674.6 108.7 671 108.7C668.567 108.7 666.133 108.433 663.7 107.9C661.267 107.333 659.1 106.65 657.2 105.85V95.2C661.533 97.2333 665.467 98.25 669 98.25C670.833 98.25 672.2 97.8833 673.1 97.15C674 96.3833 674.45 95.2 674.45 93.6C674.45 92.4333 674.183 91.5167 673.65 90.85C673.117 90.1833 672.267 89.85 671.1 89.85C670.2 89.85 669.467 90.0833 668.9 90.55C668.367 90.9833 667.933 91.6167 667.6 92.45H657.1L659.25 69.1H685.85V78.8H669.25L668.8 83.95C670.9 82.85 673.417 82.3 676.35 82.3Z" fill="white"/>
</svg>
