<svg width="13" height="24" viewBox="0 0 13 24" fill="none" xmlns="http://www.w3.org/2000/svg">
<path d="M1.06997 -5.21478e-07C1.83624 0.635747 2.72142 1.33773 3.72553 2.10594C4.72963 2.87416 5.76673 3.63576 6.83683 4.39076C7.90697 5.1457 8.97719 5.85429 10.0475 6.51653C11.0005 7.11449 11.9862 7.65841 13 8.14574L13 15.8544C11.9862 16.3417 11.0005 16.8856 10.0475 17.4835C8.97719 18.1458 7.90697 18.8543 6.83682 19.6092C5.76668 20.3641 4.72958 21.1257 3.72553 21.8941C2.72147 22.6623 1.83629 23.3643 1.06997 24L-9.5399e-08 24L4.35469e-08 20.8213C0.969733 19.1581 2.09089 17.5885 3.34914 16.1325C4.58731 14.6712 5.9038 13.2784 7.29279 11.9603C5.99805 10.7152 4.6835 9.32451 3.34914 7.78808C2.0926 6.35912 0.971387 4.81607 8.14722e-07 3.17886L9.53674e-07 -5.68248e-07L1.06997 -5.21478e-07Z" fill="white"/>
</svg>
