<svg width="32" height="7" viewBox="0 0 32 7" fill="none" xmlns="http://www.w3.org/2000/svg">
<path d="M3.55556 0C1.6 0 0 1.575 0 3.5C0 5.425 1.6 7 3.55556 7C5.51111 7 7.11111 5.425 7.11111 3.5C7.11111 1.575 5.51111 0 3.55556 0ZM28.4444 0C26.4889 0 24.8889 1.575 24.8889 3.5C24.8889 5.425 26.4889 7 28.4444 7C30.4 7 32 5.425 32 3.5C32 1.575 30.4 0 28.4444 0ZM16 0C14.0444 0 12.4444 1.575 12.4444 3.5C12.4444 5.425 14.0444 7 16 7C17.9556 7 19.5556 5.425 19.5556 3.5C19.5556 1.575 17.9556 0 16 0Z" fill="white"/>
</svg>
