<svg width="877" height="107" viewBox="0 0 877 107" fill="none" xmlns="http://www.w3.org/2000/svg">
<rect x="364" y="20" width="216" height="47" fill="#253138"/>
<path d="M6.45 55.42C4.41 55.42 2.87 54.66 1.83 53.14C0.81 51.62 0.3 49.46 0.3 46.66C0.3 43.86 0.81 41.7 1.83 40.18C2.87 38.66 4.41 37.9 6.45 37.9C7.47 37.9 8.37 38.15 9.15 38.65C9.95 39.15 10.6 39.72 11.1 40.36V36.58H9.33V31.66H18V50.08H19.32V55H11.1V52.96C10.6 53.6 9.95 54.17 9.15 54.67C8.37 55.17 7.47 55.42 6.45 55.42ZM9.36 50.08C9.94 50.08 10.37 49.93 10.65 49.63C10.95 49.31 11.1 48.82 11.1 48.16V45.16C11.1 44.5 10.95 44.02 10.65 43.72C10.37 43.4 9.94 43.24 9.36 43.24C8.78 43.24 8.34 43.4 8.04 43.72C7.76 44.02 7.62 44.5 7.62 45.16V48.16C7.62 48.82 7.76 49.31 8.04 49.63C8.34 49.93 8.78 50.08 9.36 50.08ZM29.2261 55.42C26.3861 55.42 24.1661 54.68 22.5661 53.2C20.9661 51.7 20.1661 49.52 20.1661 46.66C20.1661 43.8 20.9661 41.63 22.5661 40.15C24.1661 38.65 26.3861 37.9 29.2261 37.9C32.0461 37.9 34.0761 38.64 35.3161 40.12C36.5761 41.58 37.2061 43.4 37.2061 45.58V47.74H27.4861V47.92C27.4861 48.66 27.7061 49.21 28.1461 49.57C28.5861 49.91 29.3161 50.08 30.3361 50.08C31.5561 50.08 32.7161 49.99 33.8161 49.81C34.9161 49.63 35.8761 49.4 36.6961 49.12V53.92C35.9961 54.3 34.9661 54.65 33.6061 54.97C32.2661 55.27 30.8061 55.42 29.2261 55.42ZM30.9661 44.44V44.08C30.9661 43.4 30.8161 42.91 30.5161 42.61C30.2361 42.31 29.8061 42.16 29.2261 42.16C28.6461 42.16 28.2061 42.32 27.9061 42.64C27.6261 42.94 27.4861 43.42 27.4861 44.08V44.44H30.9661ZM42.8986 55L39.1186 43.24H37.8586V38.32H47.1286V43.24H45.8686L47.4586 49.18H47.7586L49.3486 43.24H48.0886V38.32H56.7886V43.24H55.5286L51.8386 55H42.8986ZM66.5796 55.42C63.7396 55.42 61.5196 54.68 59.9196 53.2C58.3196 51.7 57.5196 49.52 57.5196 46.66C57.5196 43.8 58.3196 41.63 59.9196 40.15C61.5196 38.65 63.7396 37.9 66.5796 37.9C69.3996 37.9 71.4296 38.64 72.6696 40.12C73.9296 41.58 74.5596 43.4 74.5596 45.58V47.74H64.8396V47.92C64.8396 48.66 65.0596 49.21 65.4996 49.57C65.9396 49.91 66.6696 50.08 67.6896 50.08C68.9096 50.08 70.0696 49.99 71.1696 49.81C72.2696 49.63 73.2296 49.4 74.0496 49.12V53.92C73.3496 54.3 72.3196 54.65 70.9596 54.97C69.6196 55.27 68.1596 55.42 66.5796 55.42ZM68.3196 44.44V44.08C68.3196 43.4 68.1696 42.91 67.8696 42.61C67.5896 42.31 67.1596 42.16 66.5796 42.16C65.9996 42.16 65.5596 42.32 65.2596 42.64C64.9796 42.94 64.8396 43.42 64.8396 44.08V44.44H68.3196ZM75.4521 55.03V50.08H76.7721V36.58H75.4521V31.66H83.6721V50.08H84.9921V55.03H75.4521ZM94.8804 55.42C92.0404 55.42 89.8204 54.68 88.2204 53.2C86.6204 51.7 85.8204 49.52 85.8204 46.66C85.8204 43.8 86.6204 41.63 88.2204 40.15C89.8204 38.65 92.0404 37.9 94.8804 37.9C97.7604 37.9 99.9904 38.66 101.57 40.18C103.15 41.68 103.94 43.84 103.94 46.66C103.94 49.52 103.14 51.7 101.54 53.2C99.9404 54.68 97.7204 55.42 94.8804 55.42ZM94.8804 50.08C95.4604 50.08 95.8904 49.93 96.1704 49.63C96.4704 49.31 96.6204 48.82 96.6204 48.16V45.16C96.6204 44.5 96.4704 44.02 96.1704 43.72C95.8904 43.4 95.4604 43.24 94.8804 43.24C94.3004 43.24 93.8604 43.4 93.5604 43.72C93.2804 44.02 93.1404 44.5 93.1404 45.16V48.16C93.1404 48.82 93.2804 49.31 93.5604 49.63C93.8604 49.93 94.3004 50.08 94.8804 50.08ZM104.775 56.74H106.095V43.24H104.775V38.32H112.995V40.36C113.495 39.72 114.135 39.15 114.915 38.65C115.715 38.15 116.625 37.9 117.645 37.9C119.685 37.9 121.215 38.66 122.235 40.18C123.275 41.7 123.795 43.86 123.795 46.66C123.795 49.46 123.275 51.62 122.235 53.14C121.215 54.66 119.685 55.42 117.645 55.42C116.625 55.42 115.715 55.17 114.915 54.67C114.135 54.17 113.495 53.6 112.995 52.96V56.74H115.065V61.66H104.775V56.74ZM114.735 50.08C115.315 50.08 115.745 49.93 116.025 49.63C116.325 49.31 116.475 48.82 116.475 48.16V45.16C116.475 44.5 116.325 44.02 116.025 43.72C115.745 43.4 115.315 43.24 114.735 43.24C114.155 43.24 113.715 43.4 113.415 43.72C113.135 44.02 112.995 44.5 112.995 45.16V48.16C112.995 48.82 113.135 49.31 113.415 49.63C113.715 49.93 114.155 50.08 114.735 50.08ZM154.942 50.08V55H145.462V50.08H146.722V45.16C146.722 44.5 146.582 44.02 146.302 43.72C146.022 43.4 145.602 43.24 145.042 43.24C143.842 43.24 143.242 43.88 143.242 45.16V50.08H144.502V55H135.082V50.08H136.342V45.16C136.342 44.5 136.202 44.02 135.922 43.72C135.642 43.4 135.222 43.24 134.662 43.24C133.462 43.24 132.862 43.88 132.862 45.16V50.08H134.122V55H124.642V50.08H125.962V43.24H124.642V38.32H132.862V40.66C134.302 38.82 136.102 37.9 138.262 37.9C139.482 37.9 140.472 38.19 141.232 38.77C142.012 39.33 142.562 40.13 142.882 41.17C143.602 40.13 144.422 39.33 145.342 38.77C146.282 38.21 147.382 37.93 148.642 37.93C150.302 37.93 151.542 38.45 152.362 39.49C153.202 40.53 153.622 41.96 153.622 43.78V50.08H154.942ZM164.841 55.42C162.001 55.42 159.781 54.68 158.181 53.2C156.581 51.7 155.781 49.52 155.781 46.66C155.781 43.8 156.581 41.63 158.181 40.15C159.781 38.65 162.001 37.9 164.841 37.9C167.661 37.9 169.691 38.64 170.931 40.12C172.191 41.58 172.821 43.4 172.821 45.58V47.74H163.101V47.92C163.101 48.66 163.321 49.21 163.761 49.57C164.201 49.91 164.931 50.08 165.951 50.08C167.171 50.08 168.331 49.99 169.431 49.81C170.531 49.63 171.491 49.4 172.311 49.12V53.92C171.611 54.3 170.581 54.65 169.221 54.97C167.881 55.27 166.421 55.42 164.841 55.42ZM166.581 44.44V44.08C166.581 43.4 166.431 42.91 166.131 42.61C165.851 42.31 165.421 42.16 164.841 42.16C164.261 42.16 163.821 42.32 163.521 42.64C163.241 42.94 163.101 43.42 163.101 44.08V44.44H166.581ZM193.634 50.08V55H184.154V50.08H185.414V45.16C185.414 44.5 185.274 44.02 184.994 43.72C184.714 43.4 184.294 43.24 183.734 43.24C182.534 43.24 181.934 43.88 181.934 45.16V50.08H183.194V55H173.714V50.08H175.034V43.24H173.714V38.32H181.934V40.66C183.374 38.82 185.174 37.9 187.334 37.9C188.994 37.9 190.234 38.42 191.054 39.46C191.894 40.5 192.314 41.93 192.314 43.75V50.08H193.634ZM202.013 55.42C199.893 55.42 198.293 54.91 197.213 53.89C196.153 52.85 195.623 51.11 195.623 48.67V43.24H194.303V38.32C195.063 38.32 195.633 38.13 196.013 37.75C196.393 37.35 196.583 36.81 196.583 36.13V34.78H202.943V38.32H206.993V43.24H202.943V48.16C202.943 48.82 203.083 49.31 203.363 49.63C203.663 49.93 204.103 50.08 204.683 50.08C205.443 50.08 206.273 49.99 207.173 49.81V54.52C206.613 54.74 205.853 54.94 204.893 55.12C203.953 55.32 202.993 55.42 202.013 55.42Z" fill="#253138"/>
<path d="M770.45 51.42C768.41 51.42 766.87 50.66 765.83 49.14C764.81 47.62 764.3 45.46 764.3 42.66C764.3 39.86 764.81 37.7 765.83 36.18C766.87 34.66 768.41 33.9 770.45 33.9C771.47 33.9 772.37 34.15 773.15 34.65C773.95 35.15 774.6 35.72 775.1 36.36V32.58H773.33V27.66H782V46.08H783.32V51H775.1V48.96C774.6 49.6 773.95 50.17 773.15 50.67C772.37 51.17 771.47 51.42 770.45 51.42ZM773.36 46.08C773.94 46.08 774.37 45.93 774.65 45.63C774.95 45.31 775.1 44.82 775.1 44.16V41.16C775.1 40.5 774.95 40.02 774.65 39.72C774.37 39.4 773.94 39.24 773.36 39.24C772.78 39.24 772.34 39.4 772.04 39.72C771.76 40.02 771.62 40.5 771.62 41.16V44.16C771.62 44.82 771.76 45.31 772.04 45.63C772.34 45.93 772.78 46.08 773.36 46.08ZM793.226 51.42C790.386 51.42 788.166 50.68 786.566 49.2C784.966 47.7 784.166 45.52 784.166 42.66C784.166 39.8 784.966 37.63 786.566 36.15C788.166 34.65 790.386 33.9 793.226 33.9C796.046 33.9 798.076 34.64 799.316 36.12C800.576 37.58 801.206 39.4 801.206 41.58V43.74H791.486V43.92C791.486 44.66 791.706 45.21 792.146 45.57C792.586 45.91 793.316 46.08 794.336 46.08C795.556 46.08 796.716 45.99 797.816 45.81C798.916 45.63 799.876 45.4 800.696 45.12V49.92C799.996 50.3 798.966 50.65 797.606 50.97C796.266 51.27 794.806 51.42 793.226 51.42ZM794.966 40.44V40.08C794.966 39.4 794.816 38.91 794.516 38.61C794.236 38.31 793.806 38.16 793.226 38.16C792.646 38.16 792.206 38.32 791.906 38.64C791.626 38.94 791.486 39.42 791.486 40.08V40.44H794.966ZM809.389 51.42C806.869 51.42 804.439 51.02 802.099 50.22V45.78H806.959V46.08C806.959 47.04 807.569 47.52 808.789 47.52C809.869 47.52 810.409 47.15 810.409 46.41C810.409 46.01 810.249 45.71 809.929 45.51C809.629 45.31 809.089 45.14 808.309 45L806.809 44.73C803.669 44.17 802.099 42.39 802.099 39.39C802.099 37.65 802.759 36.3 804.079 35.34C805.399 34.38 807.179 33.9 809.419 33.9C811.919 33.9 814.029 34.32 815.749 35.16V39.33H811.189V39.03C811.189 38.63 811.049 38.33 810.769 38.13C810.509 37.91 810.119 37.8 809.599 37.8C808.599 37.8 808.099 38.12 808.099 38.76C808.099 39.1 808.239 39.36 808.519 39.54C808.799 39.72 809.309 39.89 810.049 40.05L811.759 40.38C813.539 40.72 814.809 41.35 815.569 42.27C816.329 43.19 816.709 44.37 816.709 45.81C816.709 47.63 816.069 49.02 814.789 49.98C813.529 50.94 811.729 51.42 809.389 51.42ZM819.095 32.67V27.66H825.215V32.67H819.095ZM817.655 51V46.08H818.975V39.24H817.655V34.32H825.875V46.08H827.195V51H817.655ZM836.816 58.08C835.376 58.08 833.996 57.98 832.676 57.78C831.376 57.58 830.366 57.35 829.646 57.09V52.17C831.766 52.55 833.666 52.74 835.346 52.74C836.486 52.74 837.306 52.56 837.806 52.2C838.326 51.86 838.586 51.21 838.586 50.25V48.96C838.086 49.6 837.436 50.17 836.636 50.67C835.856 51.17 834.956 51.42 833.936 51.42C831.896 51.42 830.356 50.66 829.316 49.14C828.296 47.62 827.786 45.46 827.786 42.66C827.786 39.86 828.296 37.7 829.316 36.18C830.356 34.66 831.896 33.9 833.936 33.9C834.956 33.9 835.856 34.15 836.636 34.65C837.436 35.15 838.086 35.72 838.586 36.36V34.32H846.806V39.24H845.486V49.8C845.486 52.7 844.766 54.8 843.326 56.1C841.886 57.42 839.716 58.08 836.816 58.08ZM836.846 46.08C837.426 46.08 837.856 45.93 838.136 45.63C838.436 45.31 838.586 44.82 838.586 44.16V41.16C838.586 40.5 838.436 40.02 838.136 39.72C837.856 39.4 837.426 39.24 836.846 39.24C836.266 39.24 835.826 39.4 835.526 39.72C835.246 40.02 835.106 40.5 835.106 41.16V44.16C835.106 44.82 835.246 45.31 835.526 45.63C835.826 45.93 836.266 46.08 836.846 46.08ZM867.575 46.08V51H858.095V46.08H859.355V41.16C859.355 40.5 859.215 40.02 858.935 39.72C858.655 39.4 858.235 39.24 857.675 39.24C856.475 39.24 855.875 39.88 855.875 41.16V46.08H857.135V51H847.655V46.08H848.975V39.24H847.655V34.32H855.875V36.66C857.315 34.82 859.115 33.9 861.275 33.9C862.935 33.9 864.175 34.42 864.995 35.46C865.835 36.5 866.255 37.93 866.255 39.75V46.08H867.575Z" fill="white"/>
<path d="M406.641 55L401.361 39.32H399.681V32.76H412.041V39.32H410.361L411.801 45.56H412.201L415.121 32.76H422.481L425.401 45.56H425.801L427.201 39.32H425.521V32.76H437.121V39.32H435.441L430.361 55H420.641L418.441 43.88H418.041L415.841 55H406.641ZM450.163 55.56C446.377 55.56 443.417 54.5733 441.283 52.6C439.15 50.6 438.083 47.6933 438.083 43.88C438.083 40.0667 439.15 37.1733 441.283 35.2C443.417 33.2 446.377 32.2 450.163 32.2C453.923 32.2 456.63 33.1867 458.283 35.16C459.963 37.1067 460.803 39.5333 460.803 42.44V45.32H447.843V45.56C447.843 46.5467 448.137 47.28 448.723 47.76C449.31 48.2133 450.283 48.44 451.643 48.44C453.27 48.44 454.817 48.32 456.283 48.08C457.75 47.84 459.03 47.5333 460.123 47.16V53.56C459.19 54.0667 457.817 54.5333 456.003 54.96C454.217 55.36 452.27 55.56 450.163 55.56ZM452.483 40.92V40.44C452.483 39.5333 452.283 38.88 451.883 38.48C451.51 38.08 450.937 37.88 450.163 37.88C449.39 37.88 448.803 38.0933 448.403 38.52C448.03 38.92 447.843 39.56 447.843 40.44V40.92H452.483ZM497.306 48.44V55H486.746V52.28C486.159 53.1333 485.332 53.8933 484.266 54.56C483.226 55.2267 481.946 55.56 480.426 55.56C478.426 55.56 476.852 55.0267 475.706 53.96C474.559 52.8933 473.986 51.3867 473.986 49.44C473.986 44.4 478.266 41.8133 486.826 41.68C486.746 40.7733 486.399 40.16 485.786 39.84C485.172 39.4933 484.132 39.32 482.666 39.32C481.466 39.32 480.172 39.4533 478.786 39.72C477.426 39.96 476.172 40.2933 475.026 40.72V33.36C476.439 33.0133 477.972 32.7333 479.626 32.52C481.279 32.3067 482.892 32.2 484.466 32.2C488.439 32.2 491.279 32.92 492.986 34.36C494.692 35.8 495.546 38.0267 495.546 41.04V48.44H497.306ZM486.746 45.64C485.546 45.64 484.612 45.8 483.946 46.12C483.306 46.44 482.986 46.9733 482.986 47.72C482.986 48.1733 483.119 48.5467 483.386 48.84C483.679 49.1067 484.079 49.24 484.586 49.24C485.279 49.24 485.812 48.9467 486.186 48.36C486.559 47.7733 486.746 46.9467 486.746 45.88V45.64ZM515.675 32.2C516.208 32.2 516.715 32.2533 517.195 32.36C517.675 32.4667 518.075 32.6 518.395 32.76V40.4C517.302 39.9467 516.128 39.72 514.875 39.72C513.195 39.72 511.902 40.16 510.995 41.04C510.088 41.92 509.635 43.2267 509.635 44.96V48.44H513.235V55H498.675V48.44H500.435V39.32H498.675V32.76H509.635V35.68C510.382 34.56 511.235 33.7067 512.195 33.12C513.155 32.5067 514.315 32.2 515.675 32.2ZM531.609 55.56C527.822 55.56 524.862 54.5733 522.729 52.6C520.595 50.6 519.529 47.6933 519.529 43.88C519.529 40.0667 520.595 37.1733 522.729 35.2C524.862 33.2 527.822 32.2 531.609 32.2C535.369 32.2 538.075 33.1867 539.729 35.16C541.409 37.1067 542.249 39.5333 542.249 42.44V45.32H529.289V45.56C529.289 46.5467 529.582 47.28 530.169 47.76C530.755 48.2133 531.729 48.44 533.089 48.44C534.715 48.44 536.262 48.32 537.729 48.08C539.195 47.84 540.475 47.5333 541.569 47.16V53.56C540.635 54.0667 539.262 54.5333 537.449 54.96C535.662 55.36 533.715 55.56 531.609 55.56ZM533.929 40.92V40.44C533.929 39.5333 533.729 38.88 533.329 38.48C532.955 38.08 532.382 37.88 531.609 37.88C530.835 37.88 530.249 38.0933 529.849 38.52C529.475 38.92 529.289 39.56 529.289 40.44V40.92H533.929Z" fill="white"/>
<path d="M527.844 68.2737C527.844 68.2737 527.844 76.6116 527.844 79.5201C527.844 82.4287 531.826 86.0159 546.82 86.0159C561.813 86.0159 790.699 86.1128 801.007 86.1128C811.315 86.1128 816 84.3677 816 79.9079C816 75.4482 816 69.0494 816 69.0494" stroke="white" stroke-width="3" stroke-linecap="round"/>
<path d="M104 19.6957C104 19.6957 104 11.4249 104 8.53971C104 5.65455 108.344 2.09618 124.697 2.09618C141.051 2.09618 390.695 2.00001 401.938 2.00001C413.181 2.00001 418.292 3.7311 418.292 8.15502C418.292 12.5789 418.292 18.9263 418.292 18.9263" stroke="#0055FF" stroke-width="3" stroke-linecap="round"/>
<path d="M816 71V100" stroke="white" stroke-width="3"/>
<path d="M104 70V94" stroke="#0055FF" stroke-width="3" stroke-linecap="round"/>
<path d="M816 107L809 100L823 100L816 107Z" fill="white"/>
<path d="M104 101L97 94L111 94L104 101Z" fill="#0055FF"/>
</svg>
