<svg width="116" height="31" viewBox="0 0 116 31" fill="none" xmlns="http://www.w3.org/2000/svg">
<path d="M14.424 19.064V23H8.088V21.368C7.736 21.88 7.24 22.336 6.6 22.736C5.976 23.136 5.208 23.336 4.296 23.336C3.096 23.336 2.152 23.016 1.464 22.376C0.776 21.736 0.432 20.832 0.432 19.664C0.432 16.64 3 15.088 8.136 15.008C8.088 14.464 7.88 14.096 7.512 13.904C7.144 13.696 6.52 13.592 5.64 13.592C4.92 13.592 4.144 13.672 3.312 13.832C2.496 13.976 1.744 14.176 1.056 14.432V10.016C1.904 9.808 2.824 9.64 3.816 9.512C4.808 9.384 5.776 9.32 6.72 9.32C9.104 9.32 10.808 9.752 11.832 10.616C12.856 11.48 13.368 12.816 13.368 14.624V19.064H14.424ZM8.088 17.384C7.368 17.384 6.808 17.48 6.408 17.672C6.024 17.864 5.832 18.184 5.832 18.632C5.832 18.904 5.912 19.128 6.072 19.304C6.248 19.464 6.488 19.544 6.792 19.544C7.208 19.544 7.528 19.368 7.752 19.016C7.976 18.664 8.088 18.168 8.088 17.528V17.384ZM27.1736 23.336C24.8856 23.336 23.1016 22.744 21.8216 21.56C20.5416 20.36 19.9016 18.616 19.9016 16.328C19.9016 14.04 20.5416 12.304 21.8216 11.12C23.1016 9.92 24.8776 9.32 27.1496 9.32C28.2536 9.32 29.3096 9.472 30.3176 9.776C31.3256 10.08 32.1096 10.424 32.6696 10.808V15.56H28.5416V15.128C28.5416 14.6 28.4296 14.216 28.2056 13.976C27.9816 13.72 27.6296 13.592 27.1496 13.592C26.2216 13.592 25.7576 14.104 25.7576 15.128V17.192C25.7576 18.44 26.4696 19.064 27.8936 19.064C29.2216 19.064 30.7656 18.92 32.5256 18.632V22.4C31.9816 22.64 31.2136 22.856 30.2216 23.048C29.2456 23.24 28.2296 23.336 27.1736 23.336ZM54.2102 19.064V23H46.6262V19.064H47.6342V15.128C47.6342 14.6 47.5222 14.216 47.2982 13.976C47.0742 13.72 46.7382 13.592 46.2902 13.592C45.3302 13.592 44.8502 14.104 44.8502 15.128V19.064H45.8582V23H38.2742V19.064H39.3302V8.264H38.2742V4.328H44.8502V11.528C45.4422 10.792 46.0822 10.24 46.7702 9.872C47.4582 9.504 48.2582 9.32 49.1702 9.32C50.4982 9.32 51.4902 9.736 52.1462 10.568C52.8182 11.4 53.1542 12.544 53.1542 14V19.064H54.2102ZM66.9371 23.336C64.6651 23.336 62.8891 22.744 61.6091 21.56C60.3291 20.36 59.6891 18.616 59.6891 16.328C59.6891 14.04 60.3291 12.304 61.6091 11.12C62.8891 9.92 64.6651 9.32 66.9371 9.32C69.1931 9.32 70.8171 9.912 71.8091 11.096C72.8171 12.264 73.3211 13.72 73.3211 15.464V17.192H65.5451V17.336C65.5451 17.928 65.7211 18.368 66.0731 18.656C66.4251 18.928 67.0091 19.064 67.8251 19.064C68.8011 19.064 69.7291 18.992 70.6091 18.848C71.4891 18.704 72.2571 18.52 72.9131 18.296V22.136C72.3531 22.44 71.5291 22.72 70.4411 22.976C69.3691 23.216 68.2011 23.336 66.9371 23.336ZM68.3291 14.552V14.264C68.3291 13.72 68.2091 13.328 67.9691 13.088C67.7451 12.848 67.4011 12.728 66.9371 12.728C66.4731 12.728 66.1211 12.856 65.8811 13.112C65.6571 13.352 65.5451 13.736 65.5451 14.264V14.552H68.3291ZM79.2831 23V19.72H81.2031V10.72H78.6831V8.46L83.1231 7.44H86.4831V19.72H88.1631V23H79.2831Z" fill="#253138"/>
<path d="M100.382 0C101.372 0.818843 102.515 1.72283 103.811 2.71196C105.107 3.70109 106.446 4.68178 107.828 5.65403C109.209 6.62628 110.591 7.53886 111.972 8.39176C113.203 9.16105 114.475 9.86076 115.784 10.4876V20.4163C114.475 21.0432 113.203 21.7429 111.972 22.5122C110.591 23.3651 109.209 24.2777 107.828 25.2499C106.446 26.2222 105.107 27.2029 103.811 28.192C102.514 29.1817 101.372 30.0857 100.382 30.904H99.0007V26.8122C100.252 24.6706 101.699 22.6494 103.323 20.7744C104.922 18.8933 106.621 17.1004 108.415 15.4037C106.743 13.8004 105.046 12.0102 103.323 10.0331C101.702 8.19285 100.254 6.20574 99.0007 4.09742V0L100.382 0Z" fill="#333333"/>
<path d="M114.402 30.9057C113.412 30.0869 112.269 29.1829 110.974 28.1938C109.678 27.2046 108.339 26.2239 106.956 25.2517C105.575 24.2794 104.193 23.3669 102.812 22.514C101.581 21.7447 100.309 21.045 99 20.4181V10.4894C100.309 9.86253 101.581 9.16281 102.812 8.39352C104.193 7.54062 105.575 6.62804 106.956 5.65579C108.338 4.68355 109.677 3.70286 110.974 2.71372C112.27 1.72401 113.413 0.820024 114.402 0.0017643H115.784V4.0935C114.532 6.23513 113.085 8.25635 111.461 10.1313C109.862 12.0125 108.163 13.8053 106.37 15.502C108.041 17.1053 109.738 18.8956 111.461 20.8727C113.083 22.7129 114.53 24.7 115.784 26.8083V30.9057H114.402Z" fill="#0055FF"/>
</svg>
